<svg xmlns="http://www.w3.org/2000/svg" xmlns:xlink="http://www.w3.org/1999/xlink" contentStyleType="text/css" data-diagram-type="CLASS" height="696px" preserveAspectRatio="none" style="width:1933px;height:696px;background:#FFFFFF;" version="1.1" viewBox="0 0 1933 696" width="1933px" zoomAndPan="magnify"><title>Clean Architecture con Spring Boot + Spring Data JPA (Entidades y Persistencia)</title><defs/><g><g class="title" data-source-line="3"><text fill="#000000" font-family="sans-serif" font-size="14" font-weight="bold" lengthAdjust="spacing" textLength="636.3506" x="641.3247" y="22.9951">Clean Architecture con Spring Boot + Spring Data JPA (Entidades y Persistencia)</text></g><!--cluster Dominio--><g class="cluster" data-entity="Dominio" data-source-line="5" data-uid="ent0002" id="cluster_Dominio"><rect fill="none" height="229.38" rx="2.5" ry="2.5" style="stroke:#000000;stroke-width:1.5;" width="1122" x="7" y="460.6369"/><text fill="#000000" font-family="sans-serif" font-size="14" font-weight="bold" lengthAdjust="spacing" textLength="65.0098" x="535.4951" y="475.632">Dominio</text></g><!--cluster Aplicaci?n--><g class="cluster" data-entity="Aplicaci.n" data-source-line="30" data-uid="ent0008" id="cluster_Aplicaci.n"><rect fill="none" height="147.89" rx="2.5" ry="2.5" style="stroke:#000000;stroke-width:1.5;" width="464" x="183" y="263.7469"/><text fill="#000000" font-family="sans-serif" font-size="14" font-weight="bold" lengthAdjust="spacing" textLength="80.8828" x="374.5586" y="278.742">Aplicaci&#243;n</text></g><!--cluster Infraestructura--><g class="cluster" data-entity="Infraestructura" data-source-line="41" data-uid="ent0011" id="cluster_Infraestructura"><rect fill="none" height="625.41" rx="2.5" ry="2.5" style="stroke:#000000;stroke-width:1.5;" width="774" x="1153" y="44.2969"/><text fill="#000000" font-family="sans-serif" font-size="14" font-weight="bold" lengthAdjust="spacing" textLength="120.3193" x="1479.8403" y="59.292">Infraestructura</text></g><!--class Producto--><g class="entity" data-entity="Producto" data-source-line="6" data-uid="ent0003" id="entity_Producto"><rect fill="#F1F1F1" height="178.375" rx="2.5" ry="2.5" style="stroke:#181818;stroke-width:0.5;" width="370.6748" x="453.66" y="495.6369"/><ellipse cx="603.6097" cy="511.6369" fill="#ADD1B2" rx="11" ry="11" style="stroke:#181818;stroke-width:1;"/><path d="M606.5785,517.2775 Q606.0003,517.5744 605.3597,517.715 Q604.7191,517.8713 604.016,517.8713 Q601.516,517.8713 600.1878,516.2306 Q598.8753,514.5744 598.8753,511.4494 Q598.8753,508.3244 600.1878,506.6681 Q601.516,505.0119 604.016,505.0119 Q604.7191,505.0119 605.3597,505.1681 Q606.016,505.3244 606.5785,505.6213 L606.5785,508.34 Q605.9535,507.7619 605.3597,507.4963 Q604.766,507.215 604.141,507.215 Q602.7972,507.215 602.1097,508.2931 Q601.4222,509.3556 601.4222,511.4494 Q601.4222,513.5431 602.1097,514.6213 Q602.7972,515.6838 604.141,515.6838 Q604.766,515.6838 605.3597,515.4181 Q605.9535,515.1369 606.5785,514.5588 L606.5785,517.2775 Z " fill="#000000"/><text fill="#000000" font-family="sans-serif" font-size="14" lengthAdjust="spacing" textLength="62.2754" x="624.1097" y="516.4836">Producto</text><line style="stroke:#181818;stroke-width:0.5;" x1="454.66" x2="823.3348" y1="527.6369" y2="527.6369"/><text fill="#000000" font-family="sans-serif" font-size="14" lengthAdjust="spacing" textLength="73.2266" x="459.66" y="544.632">-id : String</text><text fill="#000000" font-family="sans-serif" font-size="14" lengthAdjust="spacing" textLength="114.7822" x="459.66" y="560.9289">-nombre : String</text><text fill="#000000" font-family="sans-serif" font-size="14" lengthAdjust="spacing" textLength="109.792" x="459.66" y="577.2257">-precio : double</text><line style="stroke:#181818;stroke-width:1;" x1="454.66" x2="823.3348" y1="584.5275" y2="584.5275"/><text fill="#000000" font-family="sans-serif" font-size="14" lengthAdjust="spacing" textLength="358.6748" x="459.66" y="601.5226">+Producto(id:String, nombre:String, precio:double)</text><text fill="#000000" font-family="sans-serif" font-size="14" lengthAdjust="spacing" textLength="315.3691" x="459.66" y="617.8195">+aplicarDescuento(porcentaje:double) : void</text><text fill="#000000" font-family="sans-serif" font-size="14" lengthAdjust="spacing" textLength="114.0576" x="459.66" y="634.1164">+getId() : String</text><text fill="#000000" font-family="sans-serif" font-size="14" lengthAdjust="spacing" textLength="156.9736" x="459.66" y="650.4132">+getNombre() : String</text><text fill="#000000" font-family="sans-serif" font-size="14" lengthAdjust="spacing" textLength="149.9395" x="459.66" y="666.7101">+getPrecio() : double</text></g><!--class ProductoRepository--><g class="entity" data-entity="ProductoRepository" data-source-line="18" data-uid="ent0004" id="entity_ProductoRepository"><rect fill="#F1F1F1" height="80.5938" rx="2.5" ry="2.5" style="stroke:#181818;stroke-width:0.5;" width="395.7148" x="23.14" y="544.5369"/><ellipse cx="148.0736" cy="560.5369" fill="#B4A7E5" rx="11" ry="11" style="stroke:#181818;stroke-width:1;"/><path d="M143.9955,556.3025 L143.9955,554.1463 L151.3861,554.1463 L151.3861,556.3025 L148.9173,556.3025 L148.9173,564.3806 L151.3861,564.3806 L151.3861,566.5369 L143.9955,566.5369 L143.9955,564.3806 L146.4642,564.3806 L146.4642,556.3025 L143.9955,556.3025 Z " fill="#000000"/><text fill="#000000" font-family="sans-serif" font-size="14" font-style="italic" lengthAdjust="spacing" textLength="137.3477" x="168.5736" y="565.3836">ProductoRepository</text><line style="stroke:#181818;stroke-width:0.5;" x1="24.14" x2="417.8548" y1="576.5369" y2="576.5369"/><line style="stroke:#181818;stroke-width:0.5;" x1="24.14" x2="417.8548" y1="584.5369" y2="584.5369"/><text fill="#000000" font-family="sans-serif" font-size="14" lengthAdjust="spacing" textLength="383.7148" x="29.14" y="601.532">+buscarPorId(id:String) : java.util.Optional&lt;Producto&gt;</text><text fill="#000000" font-family="sans-serif" font-size="14" lengthAdjust="spacing" textLength="283.5752" x="29.14" y="617.8289">+guardar(producto:Producto) : Producto</text></g><g class="entity" data-entity="GMN5" data-source-line="24" data-uid="ent0006" id="entity_GMN5"><path d="M859.04,557.1269 L859.04,580.8269 L824.7,584.8269 L859.04,588.8269 L859.04,612.5253 A0,0 0 0 0 859.04,612.5253 L1112.9672,612.5253 A0,0 0 0 0 1112.9672,612.5253 L1112.9672,567.1269 L1102.9672,557.1269 L859.04,557.1269 A0,0 0 0 0 859.04,557.1269" fill="#FEFFDD" style="stroke:#181818;stroke-width:0.5;"/><path d="M1102.9672,557.1269 L1102.9672,567.1269 L1112.9672,567.1269 L1102.9672,557.1269" fill="#FEFFDD" style="stroke:#181818;stroke-width:0.5;"/><text fill="#000000" font-family="sans-serif" font-size="13" lengthAdjust="spacing" textLength="164.4995" x="865.04" y="574.1938">Entidad de dominio pura.</text><text fill="#000000" font-family="sans-serif" font-size="13" lengthAdjust="spacing" textLength="218.772" x="865.04" y="589.3266">Sin dependencias de JPA / Spring.</text><text fill="#000000" font-family="sans-serif" font-size="13" lengthAdjust="spacing" textLength="232.9272" x="865.04" y="604.4594">Contiene reglas de negocio cr&#237;ticas.</text></g><!--class AplicarDescuentoUseCase--><g class="entity" data-entity="AplicarDescuentoUseCase" data-source-line="31" data-uid="ent0009" id="entity_AplicarDescuentoUseCase"><rect fill="#F1F1F1" height="96.8906" rx="2.5" ry="2.5" style="stroke:#181818;stroke-width:0.5;" width="431.3096" x="199.35" y="298.7469"/><ellipse cx="319.0097" cy="314.7469" fill="#ADD1B2" rx="11" ry="11" style="stroke:#181818;stroke-width:1;"/><path d="M321.9784,320.3875 Q321.4003,320.6844 320.7597,320.825 Q320.119,320.9813 319.4159,320.9813 Q316.9159,320.9813 315.5878,319.3406 Q314.2753,317.6844 314.2753,314.5594 Q314.2753,311.4344 315.5878,309.7781 Q316.9159,308.1219 319.4159,308.1219 Q320.119,308.1219 320.7597,308.2781 Q321.4159,308.4344 321.9784,308.7313 L321.9784,311.45 Q321.3534,310.8719 320.7597,310.6063 Q320.1659,310.325 319.5409,310.325 Q318.1972,310.325 317.5097,311.4031 Q316.8222,312.4656 316.8222,314.5594 Q316.8222,316.6531 317.5097,317.7313 Q318.1972,318.7938 319.5409,318.7938 Q320.1659,318.7938 320.7597,318.5281 Q321.3534,318.2469 321.9784,317.6688 L321.9784,320.3875 Z " fill="#000000"/><text fill="#000000" font-family="sans-serif" font-size="14" lengthAdjust="spacing" textLength="183.4902" x="339.5097" y="319.5936">AplicarDescuentoUseCase</text><line style="stroke:#181818;stroke-width:0.5;" x1="200.35" x2="629.6596" y1="330.7469" y2="330.7469"/><text fill="#000000" font-family="sans-serif" font-size="14" lengthAdjust="spacing" textLength="227.1172" x="205.35" y="347.742">-repository : ProductoRepository</text><line style="stroke:#181818;stroke-width:1;" x1="200.35" x2="629.6596" y1="355.0438" y2="355.0438"/><text fill="#000000" font-family="sans-serif" font-size="14" lengthAdjust="spacing" textLength="419.3096" x="205.35" y="372.0389">+AplicarDescuentoUseCase(repository:ProductoRepository)</text><text fill="#000000" font-family="sans-serif" font-size="14" lengthAdjust="spacing" textLength="381.2539" x="205.35" y="388.3357">+ejecutar(idProducto:String, porcentaje:double) : void</text></g><!--class ProductoEntity--><g class="entity" data-entity="ProductoEntity" data-source-line="42" data-uid="ent0012" id="entity_ProductoEntity"><rect fill="#F1F1F1" height="137.75" rx="2.5" ry="2.5" style="stroke:#181818;stroke-width:0.5;" width="411.5469" x="1214.23" y="515.9569"/><ellipse cx="1364.1797" cy="536.0897" fill="#ADD1B2" rx="11" ry="11" style="stroke:#181818;stroke-width:1;"/><path d="M1367.1485,541.7303 Q1366.5703,542.0272 1365.9297,542.1678 Q1365.2891,542.3241 1364.586,542.3241 Q1362.086,542.3241 1360.7578,540.6834 Q1359.4453,539.0272 1359.4453,535.9022 Q1359.4453,532.7772 1360.7578,531.1209 Q1362.086,529.4647 1364.586,529.4647 Q1365.2891,529.4647 1365.9297,529.6209 Q1366.586,529.7772 1367.1485,530.0741 L1367.1485,532.7928 Q1366.5235,532.2147 1365.9297,531.9491 Q1365.336,531.6678 1364.711,531.6678 Q1363.3672,531.6678 1362.6797,532.7459 Q1361.9922,533.8084 1361.9922,535.9022 Q1361.9922,537.9959 1362.6797,539.0741 Q1363.3672,540.1366 1364.711,540.1366 Q1365.336,540.1366 1365.9297,539.8709 Q1366.5235,539.5897 1367.1485,539.0116 L1367.1485,541.7303 Z " fill="#000000"/><text fill="#000000" font-family="sans-serif" font-size="12" font-style="italic" lengthAdjust="spacing" textLength="72.5156" x="1399.9956" y="532.0955">&#171;JPA Entity&#187;</text><text fill="#000000" font-family="sans-serif" font-size="14" lengthAdjust="spacing" textLength="103.1475" x="1384.6797" y="547.9207">ProductoEntity</text><line style="stroke:#181818;stroke-width:0.5;" x1="1215.23" x2="1624.7769" y1="556.2225" y2="556.2225"/><text fill="#000000" font-family="sans-serif" font-size="14" lengthAdjust="spacing" textLength="79.9053" x="1220.23" y="573.2176">+id : String</text><text fill="#000000" font-family="sans-serif" font-size="14" lengthAdjust="spacing" textLength="121.4609" x="1220.23" y="589.5145">+nombre : String</text><text fill="#000000" font-family="sans-serif" font-size="14" lengthAdjust="spacing" textLength="116.4707" x="1220.23" y="605.8114">+precio : double</text><line style="stroke:#181818;stroke-width:1;" x1="1215.23" x2="1624.7769" y1="613.1131" y2="613.1131"/><text fill="#000000" font-family="sans-serif" font-size="14" lengthAdjust="spacing" textLength="125.8018" x="1220.23" y="630.1082">+ProductoEntity()</text><text fill="#000000" font-family="sans-serif" font-size="14" lengthAdjust="spacing" textLength="399.5469" x="1220.23" y="646.4051">+ProductoEntity(id:String, nombre:String, precio:double)</text></g><!--class SpringDataProductoRepository--><g class="entity" data-entity="SpringDataProductoRepository" data-source-line="51" data-uid="ent0013" id="entity_SpringDataProductoRepository"><rect fill="#F1F1F1" height="88.8594" rx="2.5" ry="2.5" style="stroke:#181818;stroke-width:0.5;" width="411.2051" x="1499.4" y="302.7669"/><ellipse cx="1592.7755" cy="322.8997" fill="#B4A7E5" rx="11" ry="11" style="stroke:#181818;stroke-width:1;"/><path d="M1588.6974,318.6653 L1588.6974,316.5091 L1596.088,316.5091 L1596.088,318.6653 L1593.6192,318.6653 L1593.6192,326.7434 L1596.088,326.7434 L1596.088,328.8997 L1588.6974,328.8997 L1588.6974,326.7434 L1591.1661,326.7434 L1591.1661,318.6653 L1588.6974,318.6653 Z " fill="#000000"/><text fill="#000000" font-family="sans-serif" font-size="12" font-style="italic" lengthAdjust="spacing" textLength="97.541" x="1672.482" y="318.9055">&#171;JpaRepository&#187;</text><text fill="#000000" font-family="sans-serif" font-size="14" font-style="italic" lengthAdjust="spacing" textLength="215.9541" x="1613.2755" y="334.7307">SpringDataProductoRepository</text><line style="stroke:#181818;stroke-width:0.5;" x1="1500.4" x2="1909.6051" y1="343.0325" y2="343.0325"/><line style="stroke:#181818;stroke-width:0.5;" x1="1500.4" x2="1909.6051" y1="351.0325" y2="351.0325"/><text fill="#000000" font-family="sans-serif" font-size="14" lengthAdjust="spacing" textLength="288.668" x="1505.4" y="368.0276">+save(e:ProductoEntity) : ProductoEntity</text><text fill="#000000" font-family="sans-serif" font-size="14" lengthAdjust="spacing" textLength="399.2051" x="1505.4" y="384.3245">+findById(id:String) : java.util.Optional&lt;ProductoEntity&gt;</text></g><!--class ProductoRepositoryImpl--><g class="entity" data-entity="ProductoRepositoryImpl" data-source-line="56" data-uid="ent0014" id="entity_ProductoRepositoryImpl"><rect fill="#F1F1F1" height="121.4531" rx="2.5" ry="2.5" style="stroke:#181818;stroke-width:0.5;" width="519.6436" x="1169.18" y="79.2969"/><ellipse cx="1340.8065" cy="99.4297" fill="#ADD1B2" rx="11" ry="11" style="stroke:#181818;stroke-width:1;"/><path d="M1343.7752,105.0703 Q1343.1971,105.3672 1342.5565,105.5078 Q1341.9158,105.6641 1341.2127,105.6641 Q1338.7127,105.6641 1337.3846,104.0234 Q1336.0721,102.3672 1336.0721,99.2422 Q1336.0721,96.1172 1337.3846,94.4609 Q1338.7127,92.8047 1341.2127,92.8047 Q1341.9158,92.8047 1342.5565,92.9609 Q1343.2127,93.1172 1343.7752,93.4141 L1343.7752,96.1328 Q1343.1502,95.5547 1342.5565,95.2891 Q1341.9627,95.0078 1341.3377,95.0078 Q1339.994,95.0078 1339.3065,96.0859 Q1338.619,97.1484 1338.619,99.2422 Q1338.619,101.3359 1339.3065,102.4141 Q1339.994,103.4766 1341.3377,103.4766 Q1341.9627,103.4766 1342.5565,103.2109 Q1343.1502,102.9297 1343.7752,102.3516 L1343.7752,105.0703 Z " fill="#000000"/><text fill="#000000" font-family="sans-serif" font-size="12" font-style="italic" lengthAdjust="spacing" textLength="79.0313" x="1405.7362" y="95.4355">&#171;Repository&#187;</text><text fill="#000000" font-family="sans-serif" font-size="14" lengthAdjust="spacing" textLength="167.8906" x="1361.3065" y="111.2607">ProductoRepositoryImpl</text><line style="stroke:#181818;stroke-width:0.5;" x1="1170.18" x2="1687.8236" y1="119.5625" y2="119.5625"/><text fill="#000000" font-family="sans-serif" font-size="14" lengthAdjust="spacing" textLength="331.0508" x="1175.18" y="136.5576">-jpaRepository : SpringDataProductoRepository</text><line style="stroke:#181818;stroke-width:1;" x1="1170.18" x2="1687.8236" y1="143.8594" y2="143.8594"/><text fill="#000000" font-family="sans-serif" font-size="14" lengthAdjust="spacing" textLength="507.6436" x="1175.18" y="160.8545">+ProductoRepositoryImpl(jpaRepository:SpringDataProductoRepository)</text><text fill="#000000" font-family="sans-serif" font-size="14" lengthAdjust="spacing" textLength="383.7148" x="1175.18" y="177.1514">+buscarPorId(id:String) : java.util.Optional&lt;Producto&gt;</text><text fill="#000000" font-family="sans-serif" font-size="14" lengthAdjust="spacing" textLength="283.5752" x="1175.18" y="193.4482">+guardar(producto:Producto) : Producto</text></g><!--class ProductoMapper--><g class="entity" data-entity="ProductoMapper" data-source-line="64" data-uid="ent0015" id="entity_ProductoMapper"><rect fill="#F1F1F1" height="88.8594" rx="2.5" ry="2.5" style="stroke:#181818;stroke-width:0.5;" width="295.4043" x="1169.3" y="302.7669"/><ellipse cx="1255.2141" cy="322.8997" fill="#ADD1B2" rx="11" ry="11" style="stroke:#181818;stroke-width:1;"/><path d="M1258.1828,328.5403 Q1257.6047,328.8372 1256.9641,328.9778 Q1256.3234,329.1341 1255.6203,329.1341 Q1253.1203,329.1341 1251.7922,327.4934 Q1250.4797,325.8372 1250.4797,322.7122 Q1250.4797,319.5872 1251.7922,317.9309 Q1253.1203,316.2747 1255.6203,316.2747 Q1256.3234,316.2747 1256.9641,316.4309 Q1257.6203,316.5872 1258.1828,316.8841 L1258.1828,319.6028 Q1257.5578,319.0247 1256.9641,318.7591 Q1256.3703,318.4778 1255.7453,318.4778 Q1254.4016,318.4778 1253.7141,319.5559 Q1253.0266,320.6184 1253.0266,322.7122 Q1253.0266,324.8059 1253.7141,325.8841 Q1254.4016,326.9466 1255.7453,326.9466 Q1256.3703,326.9466 1256.9641,326.6809 Q1257.5578,326.3997 1258.1828,325.8216 L1258.1828,328.5403 Z " fill="#000000"/><text fill="#000000" font-family="sans-serif" font-size="12" font-style="italic" lengthAdjust="spacing" textLength="59.9414" x="1303.2814" y="318.9055">&#171;Mapper&#187;</text><text fill="#000000" font-family="sans-serif" font-size="14" lengthAdjust="spacing" textLength="115.0762" x="1275.7141" y="334.7307">ProductoMapper</text><line style="stroke:#181818;stroke-width:0.5;" x1="1170.3" x2="1463.7043" y1="343.0325" y2="343.0325"/><line style="stroke:#181818;stroke-width:0.5;" x1="1170.3" x2="1463.7043" y1="351.0325" y2="351.0325"/><text fill="#000000" font-family="sans-serif" font-size="14" lengthAdjust="spacing" textLength="270.2246" x="1175.3" y="368.0276">+toEntity(p:Producto) : ProductoEntity</text><text fill="#000000" font-family="sans-serif" font-size="14" lengthAdjust="spacing" textLength="283.4043" x="1175.3" y="384.3245">+toDomain(e:ProductoEntity) : Producto</text></g><g class="entity" data-entity="GMN16" data-source-line="70" data-uid="ent0017" id="entity_GMN16"><path d="M1660.68,557.1269 L1660.68,580.8269 L1626,584.8269 L1660.68,588.8269 L1660.68,612.5253 A0,0 0 0 0 1660.68,612.5253 L1865.324,612.5253 A0,0 0 0 0 1865.324,612.5253 L1865.324,567.1269 L1855.324,557.1269 L1660.68,557.1269 A0,0 0 0 0 1660.68,557.1269" fill="#FEFFDD" style="stroke:#181818;stroke-width:0.5;"/><path d="M1855.324,557.1269 L1855.324,567.1269 L1865.324,567.1269 L1855.324,557.1269" fill="#FEFFDD" style="stroke:#181818;stroke-width:0.5;"/><text fill="#000000" font-family="sans-serif" font-size="13" lengthAdjust="spacing" textLength="50.9526" x="1666.68" y="574.1938">@Entity</text><text fill="#000000" font-family="sans-serif" font-size="13" lengthAdjust="spacing" textLength="183.644" x="1666.68" y="589.3266">@Table(name="productos")</text><text fill="#000000" font-family="sans-serif" font-size="13" lengthAdjust="spacing" textLength="143.7109" x="1666.68" y="604.4594">Sin l&#243;gica de dominio.</text></g><!--link AplicarDescuentoUseCase to ProductoRepository--><g class="link" data-entity-1="AplicarDescuentoUseCase" data-entity-2="ProductoRepository" data-source-line="38" data-uid="lnk10" id="link_AplicarDescuentoUseCase_ProductoRepository"><path codeLine="38" d="M375.74,395.8769 C339.87,439.4469 291.244,498.5151 257.574,539.4051" fill="none" id="AplicarDescuentoUseCase-to-ProductoRepository" style="stroke:#181818;stroke-width:1;"/><polygon fill="#181818" points="253.76,544.0369,262.5688,539.6318,256.9383,540.177,256.3931,534.5465,253.76,544.0369" style="stroke:#181818;stroke-width:1;"/><text fill="#000000" font-family="sans-serif" font-size="13" lengthAdjust="spacing" textLength="22.9785" x="348" y="440.7038">usa</text></g><!--link ProductoRepositoryImpl to ProductoRepository--><g class="link" data-entity-1="ProductoRepositoryImpl" data-entity-2="ProductoRepository" data-source-line="77" data-uid="lnk19" id="link_ProductoRepositoryImpl_ProductoRepository"><path codeLine="77" d="M1282.66,201.0969 C1069.13,288.6469 695.65,441.3269 680,444.6369 C626.93,455.8969 487.98,437.1069 436,452.6369 C373.36,471.3569 324.9062,502.0755 283.4962,533.4555" fill="none" id="ProductoRepositoryImpl-to-ProductoRepository" style="stroke:#181818;stroke-width:1;stroke-dasharray:7,7;"/><polygon fill="none" points="269.15,544.3269,287.12,538.2376,279.8724,528.6734,269.15,544.3269" style="stroke:#181818;stroke-width:1;"/></g><!--link ProductoRepositoryImpl to SpringDataProductoRepository--><g class="link" data-entity-1="ProductoRepositoryImpl" data-entity-2="SpringDataProductoRepository" data-source-line="78" data-uid="lnk20" id="link_ProductoRepositoryImpl_SpringDataProductoRepository"><path codeLine="78" d="M1509.94,201.1969 C1553.53,233.5969 1601.5152,269.2667 1641.1752,298.7567" fill="none" id="ProductoRepositoryImpl-to-SpringDataProductoRepository" style="stroke:#181818;stroke-width:1;"/><polygon fill="#181818" points="1645.99,302.3369,1641.1545,293.7568,1641.9777,299.3534,1636.381,300.1765,1645.99,302.3369" style="stroke:#181818;stroke-width:1;"/><text fill="#000000" font-family="sans-serif" font-size="13" lengthAdjust="spacing" textLength="22.9785" x="1568" y="243.8138">usa</text></g><!--link ProductoRepositoryImpl to ProductoMapper--><g class="link" data-entity-1="ProductoRepositoryImpl" data-entity-2="ProductoMapper" data-source-line="79" data-uid="lnk21" id="link_ProductoRepositoryImpl_ProductoMapper"><path codeLine="79" d="M1396.15,201.1969 C1378.47,233.5969 1359.9151,267.5806 1343.8151,297.0706" fill="none" id="ProductoRepositoryImpl-to-ProductoMapper" style="stroke:#181818;stroke-width:1;stroke-dasharray:7,7;"/><polygon fill="#181818" points="1340.94,302.3369,1348.7635,296.3542,1343.3359,297.9483,1341.7418,292.5207,1340.94,302.3369" style="stroke:#181818;stroke-width:1;"/><text fill="#000000" font-family="sans-serif" font-size="13" lengthAdjust="spacing" textLength="22.9785" x="1380" y="243.8138">usa</text></g><!--link ProductoMapper to Producto--><g class="link" data-entity-1="ProductoMapper" data-entity-2="Producto" data-source-line="81" data-uid="lnk22" id="link_ProductoMapper_Producto"><path codeLine="81" d="M1168.94,366.8169 C1073.08,382.2269 947.01,408.8469 842,452.6369 C814.5,464.1069 791.7463,476.1564 765.8463,492.1364" fill="none" id="ProductoMapper-to-Producto" style="stroke:#181818;stroke-width:1;stroke-dasharray:7,7;"/><polygon fill="#181818" points="760.74,495.2869,770.4998,493.9653,764.9952,492.6614,766.2991,487.1569,760.74,495.2869" style="stroke:#181818;stroke-width:1;"/></g><!--link ProductoMapper to ProductoEntity--><g class="link" data-entity-1="ProductoMapper" data-entity-2="ProductoEntity" data-source-line="82" data-uid="lnk23" id="link_ProductoMapper_ProductoEntity"><path codeLine="82" d="M1336.13,391.9669 C1351.32,426.7069 1370.4071,470.379 1387.8371,510.259" fill="none" id="ProductoMapper-to-ProductoEntity" style="stroke:#181818;stroke-width:1;stroke-dasharray:7,7;"/><polygon fill="#181818" points="1390.24,515.7569,1390.3009,505.9082,1388.2376,511.1754,1382.9704,509.1121,1390.24,515.7569" style="stroke:#181818;stroke-width:1;"/></g><!--link SpringDataProductoRepository to ProductoEntity--><g class="link" data-entity-1="SpringDataProductoRepository" data-entity-2="ProductoEntity" data-source-line="84" data-uid="lnk24" id="link_SpringDataProductoRepository_ProductoEntity"><path codeLine="84" d="M1652.06,391.9669 C1610.13,426.6369 1555.414,471.8735 1507.244,511.7035" fill="none" id="SpringDataProductoRepository-to-ProductoEntity" style="stroke:#181818;stroke-width:1;stroke-dasharray:7,7;"/><polygon fill="#181818" points="1502.62,515.5269,1512.105,512.8744,1506.4733,512.3407,1507.0071,506.7091,1502.62,515.5269" style="stroke:#181818;stroke-width:1;"/><text fill="#000000" font-family="sans-serif" font-size="13" lengthAdjust="spacing" textLength="55.8911" x="1605" y="440.7038">gestiona</text></g><!--link AplicarDescuentoUseCase to Producto--><g class="link" data-entity-1="AplicarDescuentoUseCase" data-entity-2="Producto" data-source-line="87" data-uid="lnk25" id="link_AplicarDescuentoUseCase_Producto"><path codeLine="87" d="M460.33,395.8769 C487.43,424.3869 518.5858,457.1685 550.6358,490.8785" fill="none" id="AplicarDescuentoUseCase-to-Producto" style="stroke:#181818;stroke-width:1;stroke-dasharray:7,7;"/><polygon fill="#181818" points="554.77,495.2269,551.4676,485.9482,551.3248,491.6032,545.6698,491.4605,554.77,495.2269" style="stroke:#181818;stroke-width:1;"/><text fill="#000000" font-family="sans-serif" font-size="13" lengthAdjust="spacing" textLength="169.6982" x="502" y="440.7038">orquesta comportamiento</text></g><!--SRC=[lLRDSjCm4BxxANPomPcGmDbJCgGDXp03P1fuW8szSPKwaf3apWJe8t7Y4VfYhFmNstKozCAbjLQxt_vzkugz5rAZmGF46LgxSCw8RUve5Ikv4Jy8tWQsKT4OtsDA6tVC20p53cMQKU24u_DDHYXXOU8xuVWgDmIC0HjjX4pXMYa7a_gqH8VmSRs0y8Dq8i64B1nXJSOAwqZ60iT1K7c3qL8TX1Hg13y3ACE4jL597ZjLY02c81A8OECyUYMHwh3b67fIpM4BnT94vLkElP1EYt-J1ZKKILHQlQvWccDf7vNMuyeETIPYD4koSKwIxRKoCN_WdcfDzlYWH58PfEHMIJZk1bU8FnVk1g_MXUlYgWd-CU0_GZeoEuofIU2MjBB2ANEi2ZI1RMuvnBKoxBX9psFjyG5dkHFPx8jsGadChcgOUUqyHvEW2NKbZse5Rrz_rz58vPWS8hrpe7RjMu2gsP0GPr3q57HkS5PSReJa2qqoAGXWlPQdo9kADANMZM8Cafv-QLOgIKgLxsbidduxxeFrcWnJH18yjeYqAFeKYwS_iascHQzztopTeAM6M-PKpMYWn5qEdG4BJo3HSuYQIBIdE7TSQP7KIYVcNU1KKVXpQKodyo5YH91Rx9Hd9NS6oJgJ-_75eNdp7NH7kBhodIaFytd3iVuGJWQ7SF9lGrYYX-DXyGicj3SZ9Ply1Xee2YUcyNHkvMRnWKAAkc6q-LzAAksTaCdryGMZLjMo3hTRzLD0guFEECY12AUmRqVkItuXqU6IT_s47S3e4jpuVo-PRdq-eTPak2xbHwjh3L_q85odPqxnGuD2NkpovItNmdlV_lwApCLGue7UZUhyx6ZSxBtiwK_AizjQZFqTzWfkAUFLfIG_bJpT_dL5ZJOumv7PxDVGr9zJzplYuc2Ks-Aiitc_5wL-q9Es5I_TLRKBBeRqt82zfho_FBzynPQzrmHFwnyutwhImRczsSPdP6M-vmoE_AlcmBlOuK5uxRy0]--></g></svg>