<svg xmlns="http://www.w3.org/2000/svg" xmlns:xlink="http://www.w3.org/1999/xlink" contentStyleType="text/css" data-diagram-type="CLASS" height="519px" preserveAspectRatio="none" style="width:2454px;height:519px;background:#FFFFFF;" version="1.1" viewBox="0 0 2454 519" width="2454px" zoomAndPan="magnify"><title>Unidad 3 - Casos de Uso e Interactores (Clean Architecture + Spring Data JPA)</title><defs/><g><g class="title" data-source-line="3"><text fill="#000000" font-family="sans-serif" font-size="14" font-weight="bold" lengthAdjust="spacing" textLength="618.0986" x="910.9507" y="22.9951">Unidad 3 - Casos de Uso e Interactores (Clean Architecture + Spring Data JPA)</text></g><!--cluster Domain--><g class="cluster" data-entity="Domain" data-source-line="5" data-uid="ent0002" id="cluster_Domain"><rect fill="none" height="229.38" rx="2.5" ry="2.5" style="stroke:#000000;stroke-width:1.5;" width="1110" x="1338" y="284.1869"/><text fill="#000000" font-family="sans-serif" font-size="14" font-weight="bold" lengthAdjust="spacing" textLength="60.04" x="1862.98" y="299.182">Domain</text></g><!--cluster Application--><g class="cluster" data-entity="Application" data-source-line="29" data-uid="ent0008" id="cluster_Application"><rect fill="none" height="460.23" rx="2.5" ry="2.5" style="stroke:#000000;stroke-width:1.5;" width="1307" x="7" y="44.2969"/><text fill="#000000" font-family="sans-serif" font-size="14" font-weight="bold" lengthAdjust="spacing" textLength="89.2979" x="615.8511" y="59.292">Application</text></g><!--cluster ports--><g class="cluster" data-entity="ports" data-source-line="31" data-uid="ent0011" id="cluster_ports"><rect fill="none" height="182.3" rx="2.5" ry="2.5" style="stroke:#000000;stroke-width:1.5;" width="558" x="732" y="298.2269"/><text fill="#000000" font-family="sans-serif" font-size="14" font-weight="bold" lengthAdjust="spacing" textLength="41.5693" x="990.2153" y="313.222">ports</text></g><!--cluster in--><g class="cluster" data-entity="in" data-source-line="30" data-uid="ent0009" id="cluster_in"><rect fill="none" height="115.3" rx="2.5" ry="2.5" style="stroke:#000000;stroke-width:1.5;" width="510" x="756" y="341.2269"/><text fill="#000000" font-family="sans-serif" font-size="14" font-weight="bold" lengthAdjust="spacing" textLength="14.7656" x="1003.6172" y="356.222">in</text></g><!--cluster dtos--><g class="cluster" data-entity="dtos" data-source-line="36" data-uid="ent0012" id="cluster_dtos"><rect fill="none" height="147.89" rx="2.5" ry="2.5" style="stroke:#000000;stroke-width:1.5;" width="725" x="31" y="87.2969"/><text fill="#000000" font-family="sans-serif" font-size="14" font-weight="bold" lengthAdjust="spacing" textLength="34.665" x="376.1675" y="102.292">dtos</text></g><!--cluster services--><g class="cluster" data-entity="services" data-source-line="50" data-uid="ent0015" id="cluster_services"><rect fill="none" height="147.89" rx="2.5" ry="2.5" style="stroke:#000000;stroke-width:1.5;" width="510" x="780" y="87.2969"/><text fill="#000000" font-family="sans-serif" font-size="14" font-weight="bold" lengthAdjust="spacing" textLength="64.7842" x="1002.6079" y="102.292">services</text></g><!--class Producto--><g class="entity" data-entity="Producto" data-source-line="6" data-uid="ent0003" id="entity_Producto"><rect fill="#F1F1F1" height="178.375" rx="2.5" ry="2.5" style="stroke:#181818;stroke-width:0.5;" width="370.6748" x="1353.66" y="319.1869"/><ellipse cx="1503.6097" cy="335.1869" fill="#ADD1B2" rx="11" ry="11" style="stroke:#181818;stroke-width:1;"/><path d="M1506.5785,340.8275 Q1506.0003,341.1244 1505.3597,341.265 Q1504.7191,341.4213 1504.016,341.4213 Q1501.516,341.4213 1500.1878,339.7806 Q1498.8753,338.1244 1498.8753,334.9994 Q1498.8753,331.8744 1500.1878,330.2181 Q1501.516,328.5619 1504.016,328.5619 Q1504.7191,328.5619 1505.3597,328.7181 Q1506.016,328.8744 1506.5785,329.1713 L1506.5785,331.89 Q1505.9535,331.3119 1505.3597,331.0463 Q1504.766,330.765 1504.141,330.765 Q1502.7972,330.765 1502.1097,331.8431 Q1501.4222,332.9056 1501.4222,334.9994 Q1501.4222,337.0931 1502.1097,338.1713 Q1502.7972,339.2338 1504.141,339.2338 Q1504.766,339.2338 1505.3597,338.9681 Q1505.9535,338.6869 1506.5785,338.1088 L1506.5785,340.8275 Z " fill="#000000"/><text fill="#000000" font-family="sans-serif" font-size="14" lengthAdjust="spacing" textLength="62.2754" x="1524.1097" y="340.0336">Producto</text><line style="stroke:#181818;stroke-width:0.5;" x1="1354.66" x2="1723.3348" y1="351.1869" y2="351.1869"/><text fill="#000000" font-family="sans-serif" font-size="14" lengthAdjust="spacing" textLength="73.2266" x="1359.66" y="368.182">-id : String</text><text fill="#000000" font-family="sans-serif" font-size="14" lengthAdjust="spacing" textLength="114.7822" x="1359.66" y="384.4789">-nombre : String</text><text fill="#000000" font-family="sans-serif" font-size="14" lengthAdjust="spacing" textLength="109.792" x="1359.66" y="400.7757">-precio : double</text><line style="stroke:#181818;stroke-width:1;" x1="1354.66" x2="1723.3348" y1="408.0775" y2="408.0775"/><text fill="#000000" font-family="sans-serif" font-size="14" lengthAdjust="spacing" textLength="358.6748" x="1359.66" y="425.0726">+Producto(id:String, nombre:String, precio:double)</text><text fill="#000000" font-family="sans-serif" font-size="14" lengthAdjust="spacing" textLength="315.3691" x="1359.66" y="441.3695">+aplicarDescuento(porcentaje:double) : void</text><text fill="#000000" font-family="sans-serif" font-size="14" lengthAdjust="spacing" textLength="114.0576" x="1359.66" y="457.6664">+getId() : String</text><text fill="#000000" font-family="sans-serif" font-size="14" lengthAdjust="spacing" textLength="156.9736" x="1359.66" y="473.9632">+getNombre() : String</text><text fill="#000000" font-family="sans-serif" font-size="14" lengthAdjust="spacing" textLength="149.9395" x="1359.66" y="490.2601">+getPrecio() : double</text></g><!--class ProductoRepository--><g class="entity" data-entity="ProductoRepository" data-source-line="18" data-uid="ent0004" id="entity_ProductoRepository"><rect fill="#F1F1F1" height="80.5938" rx="2.5" ry="2.5" style="stroke:#181818;stroke-width:0.5;" width="395.7148" x="2036.14" y="368.0869"/><ellipse cx="2161.0736" cy="384.0869" fill="#B4A7E5" rx="11" ry="11" style="stroke:#181818;stroke-width:1;"/><path d="M2156.9955,379.8525 L2156.9955,377.6962 L2164.3861,377.6962 L2164.3861,379.8525 L2161.9173,379.8525 L2161.9173,387.9306 L2164.3861,387.9306 L2164.3861,390.0869 L2156.9955,390.0869 L2156.9955,387.9306 L2159.4642,387.9306 L2159.4642,379.8525 L2156.9955,379.8525 Z " fill="#000000"/><text fill="#000000" font-family="sans-serif" font-size="14" font-style="italic" lengthAdjust="spacing" textLength="137.3477" x="2181.5736" y="388.9336">ProductoRepository</text><line style="stroke:#181818;stroke-width:0.5;" x1="2037.14" x2="2430.8548" y1="400.0869" y2="400.0869"/><line style="stroke:#181818;stroke-width:0.5;" x1="2037.14" x2="2430.8548" y1="408.0869" y2="408.0869"/><text fill="#000000" font-family="sans-serif" font-size="14" lengthAdjust="spacing" textLength="383.7148" x="2042.14" y="425.082">+buscarPorId(id:String) : java.util.Optional&lt;Producto&gt;</text><text fill="#000000" font-family="sans-serif" font-size="14" lengthAdjust="spacing" textLength="283.5752" x="2042.14" y="441.3789">+guardar(producto:Producto) : Producto</text></g><g class="entity" data-entity="GMN5" data-source-line="24" data-uid="ent0006" id="entity_GMN5"><path d="M1759.3,388.2469 L1759.3,404.3769 L1724.82,408.3769 L1759.3,412.3769 L1759.3,428.5125 A0,0 0 0 0 1759.3,428.5125 L2000.6906,428.5125 A0,0 0 0 0 2000.6906,428.5125 L2000.6906,398.2469 L1990.6906,388.2469 L1759.3,388.2469 A0,0 0 0 0 1759.3,388.2469" fill="#FEFFDD" style="stroke:#181818;stroke-width:0.5;"/><path d="M1990.6906,388.2469 L1990.6906,398.2469 L2000.6906,398.2469 L1990.6906,388.2469" fill="#FEFFDD" style="stroke:#181818;stroke-width:0.5;"/><text fill="#000000" font-family="sans-serif" font-size="13" lengthAdjust="spacing" textLength="174.2686" x="1765.3" y="405.3138">Reglas de negocio cr&#237;ticas.</text><text fill="#000000" font-family="sans-serif" font-size="13" lengthAdjust="spacing" textLength="220.3906" x="1765.3" y="420.4466">Sin dependencias de frameworks.</text></g><!--class AplicarDescuentoUseCase--><g class="entity" data-entity="AplicarDescuentoUseCase" data-source-line="31" data-uid="ent0010" id="entity_AplicarDescuentoUseCase"><rect fill="#F1F1F1" height="64.2969" rx="2.5" ry="2.5" style="stroke:#181818;stroke-width:0.5;" width="477.541" x="772.23" y="376.2269"/><ellipse cx="915.0054" cy="392.2269" fill="#B4A7E5" rx="11" ry="11" style="stroke:#181818;stroke-width:1;"/><path d="M910.9273,387.9925 L910.9273,385.8362 L918.3179,385.8362 L918.3179,387.9925 L915.8491,387.9925 L915.8491,396.0706 L918.3179,396.0706 L918.3179,398.2269 L910.9273,398.2269 L910.9273,396.0706 L913.396,396.0706 L913.396,387.9925 L910.9273,387.9925 Z " fill="#000000"/><text fill="#000000" font-family="sans-serif" font-size="14" font-style="italic" lengthAdjust="spacing" textLength="183.4902" x="935.5054" y="397.0736">AplicarDescuentoUseCase</text><line style="stroke:#181818;stroke-width:0.5;" x1="773.23" x2="1248.771" y1="408.2269" y2="408.2269"/><line style="stroke:#181818;stroke-width:0.5;" x1="773.23" x2="1248.771" y1="416.2269" y2="416.2269"/><text fill="#000000" font-family="sans-serif" font-size="14" lengthAdjust="spacing" textLength="465.541" x="778.23" y="433.222">+ejecutar(input:AplicarDescuentoInput) : AplicarDescuentoOutput</text></g><!--class AplicarDescuentoInput--><g class="entity" data-entity="AplicarDescuentoInput" data-source-line="37" data-uid="ent0013" id="entity_AplicarDescuentoInput"><rect fill="#F1F1F1" height="80.5938" rx="2.5" ry="2.5" style="stroke:#181818;stroke-width:0.5;" width="191.3252" x="47.34" y="130.4469"/><ellipse cx="62.34" cy="146.4469" fill="#ADD1B2" rx="11" ry="11" style="stroke:#181818;stroke-width:1;"/><path d="M65.3088,152.0875 Q64.7306,152.3844 64.09,152.525 Q63.4494,152.6812 62.7463,152.6812 Q60.2463,152.6812 58.9181,151.0406 Q57.6056,149.3844 57.6056,146.2594 Q57.6056,143.1344 58.9181,141.4781 Q60.2463,139.8219 62.7463,139.8219 Q63.4494,139.8219 64.09,139.9781 Q64.7463,140.1344 65.3088,140.4312 L65.3088,143.15 Q64.6838,142.5719 64.09,142.3062 Q63.4963,142.025 62.8713,142.025 Q61.5275,142.025 60.84,143.1031 Q60.1525,144.1656 60.1525,146.2594 Q60.1525,148.3531 60.84,149.4312 Q61.5275,150.4937 62.8713,150.4937 Q63.4963,150.4937 64.09,150.2281 Q64.6838,149.9469 65.3088,149.3687 L65.3088,152.0875 Z " fill="#000000"/><text fill="#000000" font-family="sans-serif" font-size="14" lengthAdjust="spacing" textLength="159.3252" x="76.34" y="151.2936">AplicarDescuentoInput</text><line style="stroke:#181818;stroke-width:0.5;" x1="48.34" x2="237.6652" y1="162.4469" y2="162.4469"/><text fill="#000000" font-family="sans-serif" font-size="14" lengthAdjust="spacing" textLength="142.1807" x="53.34" y="179.442">+idProducto : String</text><text fill="#000000" font-family="sans-serif" font-size="14" lengthAdjust="spacing" textLength="148.0254" x="53.34" y="195.7389">+porcentaje : double</text><line style="stroke:#181818;stroke-width:0.5;" x1="48.34" x2="237.6652" y1="203.0406" y2="203.0406"/></g><!--class AplicarDescuentoOutput--><g class="entity" data-entity="AplicarDescuentoOutput" data-source-line="42" data-uid="ent0014" id="entity_AplicarDescuentoOutput"><rect fill="#F1F1F1" height="96.8906" rx="2.5" ry="2.5" style="stroke:#181818;stroke-width:0.5;" width="465.9336" x="274.03" y="122.2969"/><ellipse cx="416.8943" cy="138.2969" fill="#ADD1B2" rx="11" ry="11" style="stroke:#181818;stroke-width:1;"/><path d="M419.863,143.9375 Q419.2849,144.2344 418.6443,144.375 Q418.0036,144.5313 417.3005,144.5313 Q414.8005,144.5313 413.4724,142.8906 Q412.1599,141.2344 412.1599,138.1094 Q412.1599,134.9844 413.4724,133.3281 Q414.8005,131.6719 417.3005,131.6719 Q418.0036,131.6719 418.6443,131.8281 Q419.3005,131.9844 419.863,132.2813 L419.863,135 Q419.238,134.4219 418.6443,134.1563 Q418.0505,133.875 417.4255,133.875 Q416.0818,133.875 415.3943,134.9531 Q414.7068,136.0156 414.7068,138.1094 Q414.7068,140.2031 415.3943,141.2813 Q416.0818,142.3438 417.4255,142.3438 Q418.0505,142.3438 418.6443,142.0781 Q419.238,141.7969 419.863,141.2188 L419.863,143.9375 Z " fill="#000000"/><text fill="#000000" font-family="sans-serif" font-size="14" lengthAdjust="spacing" textLength="171.7051" x="437.3943" y="143.1436">AplicarDescuentoOutput</text><line style="stroke:#181818;stroke-width:0.5;" x1="275.03" x2="738.9636" y1="154.2969" y2="154.2969"/><text fill="#000000" font-family="sans-serif" font-size="14" lengthAdjust="spacing" textLength="142.1807" x="280.03" y="171.292">+idProducto : String</text><text fill="#000000" font-family="sans-serif" font-size="14" lengthAdjust="spacing" textLength="149.7549" x="280.03" y="187.5889">+precioFinal : double</text><line style="stroke:#181818;stroke-width:1;" x1="275.03" x2="738.9636" y1="194.8906" y2="194.8906"/><text fill="#000000" font-family="sans-serif" font-size="14" lengthAdjust="spacing" textLength="453.9336" x="280.03" y="211.8857">+AplicarDescuentoOutput(idProducto:String, precioFinal:double)</text></g><!--class AplicarDescuentoInteractor--><g class="entity" data-entity="AplicarDescuentoInteractor" data-source-line="51" data-uid="ent0016" id="entity_AplicarDescuentoInteractor"><rect fill="#F1F1F1" height="96.8906" rx="2.5" ry="2.5" style="stroke:#181818;stroke-width:0.5;" width="477.541" x="796.23" y="122.2969"/><ellipse cx="934.7398" cy="138.2969" fill="#ADD1B2" rx="11" ry="11" style="stroke:#181818;stroke-width:1;"/><path d="M937.7085,143.9375 Q937.1304,144.2344 936.4898,144.375 Q935.8491,144.5313 935.146,144.5313 Q932.646,144.5313 931.3179,142.8906 Q930.0054,141.2344 930.0054,138.1094 Q930.0054,134.9844 931.3179,133.3281 Q932.646,131.6719 935.146,131.6719 Q935.8491,131.6719 936.4898,131.8281 Q937.146,131.9844 937.7085,132.2813 L937.7085,135 Q937.0835,134.4219 936.4898,134.1563 Q935.896,133.875 935.271,133.875 Q933.9273,133.875 933.2398,134.9531 Q932.5523,136.0156 932.5523,138.1094 Q932.5523,140.2031 933.2398,141.2813 Q933.9273,142.3438 935.271,142.3438 Q935.896,142.3438 936.4898,142.0781 Q937.0835,141.7969 937.7085,141.2188 L937.7085,143.9375 Z " fill="#000000"/><text fill="#000000" font-family="sans-serif" font-size="14" lengthAdjust="spacing" textLength="192.0215" x="955.2398" y="143.1436">AplicarDescuentoInteractor</text><line style="stroke:#181818;stroke-width:0.5;" x1="797.23" x2="1272.771" y1="154.2969" y2="154.2969"/><text fill="#000000" font-family="sans-serif" font-size="14" lengthAdjust="spacing" textLength="227.1172" x="802.23" y="171.292">-repository : ProductoRepository</text><line style="stroke:#181818;stroke-width:1;" x1="797.23" x2="1272.771" y1="178.5938" y2="178.5938"/><text fill="#000000" font-family="sans-serif" font-size="14" lengthAdjust="spacing" textLength="427.8408" x="802.23" y="195.5889">+AplicarDescuentoInteractor(repository:ProductoRepository)</text><text fill="#000000" font-family="sans-serif" font-size="14" lengthAdjust="spacing" textLength="465.541" x="802.23" y="211.8857">+ejecutar(input:AplicarDescuentoInput) : AplicarDescuentoOutput</text></g><!--link AplicarDescuentoInteractor to AplicarDescuentoUseCase--><g class="link" data-entity-1="AplicarDescuentoInteractor" data-entity-2="AplicarDescuentoUseCase" data-source-line="59" data-uid="lnk17" id="link_AplicarDescuentoInteractor_AplicarDescuentoUseCase"><path codeLine="59" d="M1030.14,219.4269 C1025.39,266.0969 1020.1164,317.9298 1016.0264,358.0298" fill="none" id="AplicarDescuentoInteractor-to-AplicarDescuentoUseCase" style="stroke:#181818;stroke-width:1;stroke-dasharray:7,7;"/><polygon fill="none" points="1014.2,375.9369,1021.9955,358.6386,1010.0574,357.421,1014.2,375.9369" style="stroke:#181818;stroke-width:1;"/></g><!--link AplicarDescuentoInteractor to ProductoRepository--><g class="link" data-entity-1="AplicarDescuentoInteractor" data-entity-2="ProductoRepository" data-source-line="60" data-uid="lnk18" id="link_AplicarDescuentoInteractor_ProductoRepository"><path codeLine="60" d="M1274.08,185.1369 C1519.86,201.0469 1884.88,231.2169 2018,276.1869 C2079.31,296.9069 2136.8327,333.7608 2178.6827,364.2908" fill="none" id="AplicarDescuentoInteractor-to-ProductoRepository" style="stroke:#181818;stroke-width:1;"/><polygon fill="#181818" points="2183.53,367.8269,2178.6165,359.2912,2179.4906,364.8801,2173.9017,365.7542,2183.53,367.8269" style="stroke:#181818;stroke-width:1;"/><text fill="#000000" font-family="sans-serif" font-size="13" lengthAdjust="spacing" textLength="22.9785" x="1991" y="264.2538">usa</text></g><!--link AplicarDescuentoInteractor to Producto--><g class="link" data-entity-1="AplicarDescuentoInteractor" data-entity-2="Producto" data-source-line="61" data-uid="lnk19" id="link_AplicarDescuentoInteractor_Producto"><path codeLine="61" d="M1142.19,219.5869 C1181.26,237.1869 1225.71,257.4069 1266,276.1869 C1295.19,289.8069 1320.6257,301.8213 1350.6757,316.1713" fill="none" id="AplicarDescuentoInteractor-to-Producto" style="stroke:#181818;stroke-width:1;stroke-dasharray:7,7;"/><polygon fill="#181818" points="1356.09,318.7569,1349.6922,311.269,1351.5781,316.6023,1346.2448,318.4881,1356.09,318.7569" style="stroke:#181818;stroke-width:1;"/><text fill="#000000" font-family="sans-serif" font-size="13" lengthAdjust="spacing" textLength="169.6982" x="1248" y="264.2538">orquesta comportamiento</text></g><!--SRC=[jLH9RXin4BpFAne-ZQ18293R830WM0YW76B1WX_G8bjZIYDomaM1a-X9UKK-bYPdqMBPyYMNMNgfAZQBT1kbQxIu1L6XSnFlhLe6JpDXz4Bz9FYOkRwaHh71aXR-kIAm93pgigBCAy__Zrf9bF09Hd27pZYG77C626RQaqNXZIK7-Lr5g65YnPFo314imH0MjLMwX2bwXA_poI3BMYwucPejAdq3lp9eDCBS6XaOBeM0-PI40XO-GhGHRRPB1ZwBrgnP6OvA4vOiF4L7wJNiKNCbYwRhGmlJ_pRzHTCzQFkmhfH0EoKd0cdkhuqL_85hwYgPSMUKR1jAyZEP3qx5fV2tH7SnDK_KATMBtsVyK76uAnJKB-21QkCKJ_kv7T0Gbi6nnBcnJDmlBsAjSOVZu5Krlg-zCXghpntCRKSUq4gqUTt6YwuWzdVVdHfjF3j3bKyUpEeu2_109UzUT8McqiHz4FRl7y-pS-DKi52QipLfILgefdJ5jgCVncvI3QSIGxO_yiUaJXiGrJScwJEy4TwDE-ySZsfojcUFZjYprDR5LTEQHF2yRFP-yCLvmon6um3E4_V1SoR1xBkXz8AaDwuJqrZv8kwH32Lxivzu8kOEFZjrTE9yZQ3Hzrw6PBelYcrnIj4VcrXrcI8_09-TduHtSeXUJigHtIb1LwVLNIpzWaPyB_NsBowSYUlw3wZv0QjuYJJuBsPvOutZyU_RrwpxTkTeT7lfUYWWEBp6UUZaUcE_1t9yIGkpZSSBjoesPFj_]--></g></svg>