<svg xmlns="http://www.w3.org/2000/svg" xmlns:xlink="http://www.w3.org/1999/xlink" contentStyleType="text/css" data-diagram-type="DESCRIPTION" height="779px" preserveAspectRatio="none" style="width:1803px;height:779px;background:#FFFFFF;" version="1.1" viewBox="0 0 1803 779" width="1803px" zoomAndPan="magnify"><title>Clean Architecture - Capas, Frameworks y DIP</title><defs/><g><g class="title" data-source-line="2"><text fill="#000000" font-family="sans-serif" font-size="14" font-weight="bold" lengthAdjust="spacing" textLength="363.542" x="713.1399" y="22.9951">Clean Architecture - Capas, Frameworks y DIP</text></g><!--cluster Frameworks & Drivers\n(Infraestructura externa)--><g class="cluster" data-entity="Frameworks . Drivers.n.Infraestructura externa." data-source-line="4" data-uid="ent0002" id="cluster_Frameworks . Drivers.n.Infraestructura externa."><rect fill="none" height="275.19" rx="2.5" ry="2.5" style="stroke:#181818;stroke-width:1;" width="695" x="7" y="197.8869"/><text fill="#000000" font-family="sans-serif" font-size="14" font-weight="bold" lengthAdjust="spacing" textLength="176.2373" x="266.3813" y="212.882">Frameworks &amp; Drivers</text><text fill="#000000" font-family="sans-serif" font-size="14" font-weight="bold" lengthAdjust="spacing" textLength="199.0215" x="254.9893" y="229.1789">(Infraestructura externa)</text></g><!--cluster Adaptadores\n(Interfaces t?cnicas)--><g class="cluster" data-entity="Adaptadores.n.Interfaces t.cnicas." data-source-line="12" data-uid="ent0008" id="cluster_Adaptadores.n.Interfaces t.cnicas."><rect fill="none" height="129.59" rx="2.5" ry="2.5" style="stroke:#181818;stroke-width:1;" width="519" x="502" y="44.2969"/><text fill="#000000" font-family="sans-serif" font-size="14" font-weight="bold" lengthAdjust="spacing" textLength="100.8369" x="711.0815" y="59.292">Adaptadores</text><text fill="#000000" font-family="sans-serif" font-size="14" font-weight="bold" lengthAdjust="spacing" textLength="162.9346" x="680.0327" y="75.5889">(Interfaces t&#233;cnicas)</text></g><!--cluster Aplicaci?n\n(Casos de uso)--><g class="cluster" data-entity="Aplicaci.n.n.Casos de uso." data-source-line="17" data-uid="ent0011" id="cluster_Aplicaci.n.n.Casos de uso."><rect fill="none" height="312.89" rx="2.5" ry="2.5" style="stroke:#181818;stroke-width:1;" width="552" x="734" y="335.4869"/><text fill="#000000" font-family="sans-serif" font-size="14" font-weight="bold" lengthAdjust="spacing" textLength="80.8828" x="969.5586" y="350.482">Aplicaci&#243;n</text><text fill="#000000" font-family="sans-serif" font-size="14" font-weight="bold" lengthAdjust="spacing" textLength="115.9854" x="952.0073" y="366.7789">(Casos de uso)</text></g><!--cluster Dominio\n(Reglas de negocio)--><g class="cluster" data-entity="Dominio.n.Reglas de negocio." data-source-line="25" data-uid="ent0016" id="cluster_Dominio.n.Reglas de negocio."><rect fill="none" height="268.19" rx="2.5" ry="2.5" style="stroke:#181818;stroke-width:1;" width="224" x="470" y="505.0769"/><text fill="#000000" font-family="sans-serif" font-size="14" font-weight="bold" lengthAdjust="spacing" textLength="65.0098" x="549.4951" y="520.072">Dominio</text><text fill="#000000" font-family="sans-serif" font-size="14" font-weight="bold" lengthAdjust="spacing" textLength="156.7549" x="503.6226" y="536.3689">(Reglas de negocio)</text></g><!--entity Spring Boot--><g class="entity" data-entity="Spring Boot" data-source-line="5" data-uid="ent0003" id="entity_Spring Boot"><rect fill="#F1F1F1" height="62.5938" rx="2.5" ry="2.5" style="stroke:#181818;stroke-width:0.5;" width="134.5244" x="22.74" y="248.8869"/><rect fill="#F1F1F1" height="10" style="stroke:#181818;stroke-width:0.5;" width="15" x="137.2644" y="253.8869"/><rect fill="#F1F1F1" height="2" style="stroke:#181818;stroke-width:0.5;" width="4" x="135.2644" y="255.8869"/><rect fill="#F1F1F1" height="2" style="stroke:#181818;stroke-width:0.5;" width="4" x="135.2644" y="259.8869"/><text fill="#000000" font-family="sans-serif" font-size="14" font-style="italic" lengthAdjust="spacing" textLength="92.5244" x="38.74" y="281.882">&#171;framework&#187;</text><text fill="#000000" font-family="sans-serif" font-size="14" lengthAdjust="spacing" textLength="81.8535" x="44.0754" y="298.1789">Spring Boot</text></g><!--entity Spring Data JPA--><g class="entity" data-entity="Spring Data JPA" data-source-line="6" data-uid="ent0004" id="entity_Spring Data JPA"><rect fill="#F1F1F1" height="62.5938" rx="2.5" ry="2.5" style="stroke:#181818;stroke-width:0.5;" width="149.6553" x="192.17" y="248.8869"/><rect fill="#F1F1F1" height="10" style="stroke:#181818;stroke-width:0.5;" width="15" x="321.8253" y="253.8869"/><rect fill="#F1F1F1" height="2" style="stroke:#181818;stroke-width:0.5;" width="4" x="319.8253" y="255.8869"/><rect fill="#F1F1F1" height="2" style="stroke:#181818;stroke-width:0.5;" width="4" x="319.8253" y="259.8869"/><text fill="#000000" font-family="sans-serif" font-size="14" font-style="italic" lengthAdjust="spacing" textLength="58.3174" x="232.8389" y="281.882">&#171;driver&#187;</text><text fill="#000000" font-family="sans-serif" font-size="14" lengthAdjust="spacing" textLength="109.6553" x="207.17" y="298.1789">Spring Data JPA</text></g><!--entity REST Controller--><g class="entity" data-entity="REST Controller" data-source-line="7" data-uid="ent0005" id="entity_REST Controller"><rect fill="#F1F1F1" height="62.5938" rx="2.5" ry="2.5" style="stroke:#181818;stroke-width:0.5;" width="149.6348" x="377.18" y="248.8869"/><rect fill="#F1F1F1" height="10" style="stroke:#181818;stroke-width:0.5;" width="15" x="506.8148" y="253.8869"/><rect fill="#F1F1F1" height="2" style="stroke:#181818;stroke-width:0.5;" width="4" x="504.8148" y="255.8869"/><rect fill="#F1F1F1" height="2" style="stroke:#181818;stroke-width:0.5;" width="4" x="504.8148" y="259.8869"/><text fill="#000000" font-family="sans-serif" font-size="14" font-style="italic" lengthAdjust="spacing" textLength="58.3174" x="417.8387" y="281.882">&#171;driver&#187;</text><text fill="#000000" font-family="sans-serif" font-size="14" lengthAdjust="spacing" textLength="109.6348" x="392.18" y="298.1789">REST Controller</text></g><!--entity H2 Database--><g class="entity" data-entity="H2 Database" data-source-line="8" data-uid="ent0006" id="entity_H2 Database"><rect fill="#F1F1F1" height="62.5938" rx="2.5" ry="2.5" style="stroke:#181818;stroke-width:0.5;" width="130.6855" x="201.66" y="394.4869"/><rect fill="#F1F1F1" height="10" style="stroke:#181818;stroke-width:0.5;" width="15" x="312.3455" y="399.4869"/><rect fill="#F1F1F1" height="2" style="stroke:#181818;stroke-width:0.5;" width="4" x="310.3455" y="401.4869"/><rect fill="#F1F1F1" height="2" style="stroke:#181818;stroke-width:0.5;" width="4" x="310.3455" y="405.4869"/><text fill="#000000" font-family="sans-serif" font-size="14" font-style="italic" lengthAdjust="spacing" textLength="58.3174" x="232.8441" y="427.482">&#171;driver&#187;</text><text fill="#000000" font-family="sans-serif" font-size="14" lengthAdjust="spacing" textLength="90.6855" x="216.66" y="443.7789">H2 Database</text></g><!--entity External API--><g class="entity" data-entity="External API" data-source-line="9" data-uid="ent0007" id="entity_External API"><rect fill="#F1F1F1" height="62.5938" rx="2.5" ry="2.5" style="stroke:#181818;stroke-width:0.5;" width="124.9297" x="561.54" y="248.8869"/><rect fill="#F1F1F1" height="10" style="stroke:#181818;stroke-width:0.5;" width="15" x="666.4697" y="253.8869"/><rect fill="#F1F1F1" height="2" style="stroke:#181818;stroke-width:0.5;" width="4" x="664.4697" y="255.8869"/><rect fill="#F1F1F1" height="2" style="stroke:#181818;stroke-width:0.5;" width="4" x="664.4697" y="259.8869"/><text fill="#000000" font-family="sans-serif" font-size="14" font-style="italic" lengthAdjust="spacing" textLength="58.3174" x="589.8462" y="281.882">&#171;driver&#187;</text><text fill="#000000" font-family="sans-serif" font-size="14" lengthAdjust="spacing" textLength="84.9297" x="576.54" y="298.1789">External API</text></g><!--entity ProductoRepositoryAdapter--><g class="entity" data-entity="ProductoRepositoryAdapter" data-source-line="13" data-uid="ent0009" id="entity_ProductoRepositoryAdapter"><rect fill="#F1F1F1" height="62.5938" rx="2.5" ry="2.5" style="stroke:#181818;stroke-width:0.5;" width="233.1357" x="518.43" y="95.2969"/><rect fill="#F1F1F1" height="10" style="stroke:#181818;stroke-width:0.5;" width="15" x="731.5657" y="100.2969"/><rect fill="#F1F1F1" height="2" style="stroke:#181818;stroke-width:0.5;" width="4" x="729.5657" y="102.2969"/><rect fill="#F1F1F1" height="2" style="stroke:#181818;stroke-width:0.5;" width="4" x="729.5657" y="106.2969"/><text fill="#000000" font-family="sans-serif" font-size="14" font-style="italic" lengthAdjust="spacing" textLength="71.9209" x="594.0374" y="128.292">&#171;adapter&#187;</text><text fill="#000000" font-family="sans-serif" font-size="14" lengthAdjust="spacing" textLength="193.1357" x="533.43" y="144.5889">ProductoRepositoryAdapter</text></g><!--entity CatalogoExternoGateway--><g class="entity" data-entity="CatalogoExternoGateway" data-source-line="14" data-uid="ent0010" id="entity_CatalogoExternoGateway"><rect fill="#F1F1F1" height="62.5938" rx="2.5" ry="2.5" style="stroke:#181818;stroke-width:0.5;" width="218.6025" x="786.7" y="95.2969"/><rect fill="#F1F1F1" height="10" style="stroke:#181818;stroke-width:0.5;" width="15" x="985.3025" y="100.2969"/><rect fill="#F1F1F1" height="2" style="stroke:#181818;stroke-width:0.5;" width="4" x="983.3025" y="102.2969"/><rect fill="#F1F1F1" height="2" style="stroke:#181818;stroke-width:0.5;" width="4" x="983.3025" y="106.2969"/><text fill="#000000" font-family="sans-serif" font-size="14" font-style="italic" lengthAdjust="spacing" textLength="71.9209" x="855.0408" y="128.292">&#171;adapter&#187;</text><text fill="#000000" font-family="sans-serif" font-size="14" lengthAdjust="spacing" textLength="178.6025" x="801.7" y="144.5889">CatalogoExternoGateway</text></g><!--entity ListarProductosInteractor--><g class="entity" data-entity="ListarProductosInteractor" data-source-line="18" data-uid="ent0012" id="entity_ListarProductosInteractor"><rect fill="#F1F1F1" height="62.5938" rx="2.5" ry="2.5" style="stroke:#181818;stroke-width:0.5;" width="217.3242" x="758.34" y="394.4869"/><rect fill="#F1F1F1" height="10" style="stroke:#181818;stroke-width:0.5;" width="15" x="955.6642" y="399.4869"/><rect fill="#F1F1F1" height="2" style="stroke:#181818;stroke-width:0.5;" width="4" x="953.6642" y="401.4869"/><rect fill="#F1F1F1" height="2" style="stroke:#181818;stroke-width:0.5;" width="4" x="953.6642" y="405.4869"/><text fill="#000000" font-family="sans-serif" font-size="14" font-style="italic" lengthAdjust="spacing" textLength="78.5449" x="822.7296" y="427.482">&#171;use case&#187;</text><text fill="#000000" font-family="sans-serif" font-size="14" lengthAdjust="spacing" textLength="177.3242" x="773.34" y="443.7789">ListarProductosInteractor</text></g><!--entity AplicarDescuentoInteractor--><g class="entity" data-entity="AplicarDescuentoInteractor" data-source-line="19" data-uid="ent0013" id="entity_AplicarDescuentoInteractor"><rect fill="#F1F1F1" height="62.5938" rx="2.5" ry="2.5" style="stroke:#181818;stroke-width:0.5;" width="232.0215" x="1010.99" y="394.4869"/><rect fill="#F1F1F1" height="10" style="stroke:#181818;stroke-width:0.5;" width="15" x="1223.0115" y="399.4869"/><rect fill="#F1F1F1" height="2" style="stroke:#181818;stroke-width:0.5;" width="4" x="1221.0115" y="401.4869"/><rect fill="#F1F1F1" height="2" style="stroke:#181818;stroke-width:0.5;" width="4" x="1221.0115" y="405.4869"/><text fill="#000000" font-family="sans-serif" font-size="14" font-style="italic" lengthAdjust="spacing" textLength="78.5449" x="1082.7283" y="427.482">&#171;use case&#187;</text><text fill="#000000" font-family="sans-serif" font-size="14" lengthAdjust="spacing" textLength="192.0215" x="1025.99" y="443.7789">AplicarDescuentoInteractor</text></g><!--entity ProductoRepository--><g class="entity" data-entity="ProductoRepository" data-source-line="21" data-uid="ent0014" id="entity_ProductoRepository"><ellipse cx="972" cy="595.3769" fill="#F1F1F1" rx="8" ry="8" style="stroke:#181818;stroke-width:0.5;"/><text fill="#000000" font-family="sans-serif" font-size="14" lengthAdjust="spacing" textLength="137.3477" x="903.3262" y="625.372">ProductoRepository</text></g><!--entity CatalogoExternoPort--><g class="entity" data-entity="CatalogoExternoPort" data-source-line="22" data-uid="ent0015" id="entity_CatalogoExternoPort"><ellipse cx="1163" cy="595.3769" fill="#F1F1F1" rx="8" ry="8" style="stroke:#181818;stroke-width:0.5;"/><text fill="#000000" font-family="sans-serif" font-size="14" lengthAdjust="spacing" textLength="145.0107" x="1090.4946" y="625.372">CatalogoExternoPort</text></g><!--entity Producto--><g class="entity" data-entity="Producto" data-source-line="26" data-uid="ent0017" id="entity_Producto"><rect fill="#F1F1F1" height="62.5938" rx="2.5" ry="2.5" style="stroke:#181818;stroke-width:0.5;" width="102.2754" x="548.86" y="564.0769"/><rect fill="#F1F1F1" height="10" style="stroke:#181818;stroke-width:0.5;" width="15" x="631.1354" y="569.0769"/><rect fill="#F1F1F1" height="2" style="stroke:#181818;stroke-width:0.5;" width="4" x="629.1354" y="571.0769"/><rect fill="#F1F1F1" height="2" style="stroke:#181818;stroke-width:0.5;" width="4" x="629.1354" y="575.0769"/><text fill="#000000" font-family="sans-serif" font-size="14" font-style="italic" lengthAdjust="spacing" textLength="57.7705" x="566.1124" y="597.072">&#171;entity&#187;</text><text fill="#000000" font-family="sans-serif" font-size="14" lengthAdjust="spacing" textLength="62.2754" x="563.86" y="613.3689">Producto</text></g><!--entity Reglas de negocio--><g class="entity" data-entity="Reglas de negocio" data-source-line="27" data-uid="ent0018" id="entity_Reglas de negocio"><rect fill="#F1F1F1" height="62.5938" rx="2.5" ry="2.5" style="stroke:#181818;stroke-width:0.5;" width="168.4814" x="493.76" y="686.6769"/><rect fill="#F1F1F1" height="10" style="stroke:#181818;stroke-width:0.5;" width="15" x="642.2414" y="691.6769"/><rect fill="#F1F1F1" height="2" style="stroke:#181818;stroke-width:0.5;" width="4" x="640.2414" y="693.6769"/><rect fill="#F1F1F1" height="2" style="stroke:#181818;stroke-width:0.5;" width="4" x="640.2414" y="697.6769"/><text fill="#000000" font-family="sans-serif" font-size="14" font-style="italic" lengthAdjust="spacing" textLength="58.3447" x="543.8284" y="719.672">&#171;policy&#187;</text><text fill="#000000" font-family="sans-serif" font-size="14" lengthAdjust="spacing" textLength="128.4814" x="508.76" y="735.9689">Reglas de negocio</text></g><g class="entity" data-entity="GMN32" data-source-line="51" data-uid="ent0033" id="entity_GMN32"><path d="M717.82,697.8369 L717.82,738.1025 L1014.1877,738.1025 L1014.1877,707.8369 L1004.1877,697.8369 L717.82,697.8369" fill="#FEFFDD" style="stroke:#181818;stroke-width:0.5;"/><path d="M1004.1877,697.8369 L1004.1877,707.8369 L1014.1877,707.8369 L1004.1877,697.8369" fill="#FEFFDD" style="stroke:#181818;stroke-width:1;"/><text fill="#000000" font-family="sans-serif" font-size="13" lengthAdjust="spacing" textLength="154.6099" x="723.82" y="714.9038">El dominio est&#225; aislado.</text><text fill="#000000" font-family="sans-serif" font-size="13" lengthAdjust="spacing" textLength="275.3677" x="723.82" y="730.0366">No conoce nada de frameworks ni drivers.</text></g><g class="entity" data-entity="GMN35" data-source-line="56" data-uid="ent0036" id="entity_GMN35"><path d="M1455.17,405.6469 L1455.17,445.9125 L1796.8219,445.9125 L1796.8219,415.6469 L1786.8219,405.6469 L1455.17,405.6469" fill="#FEFFDD" style="stroke:#181818;stroke-width:0.5;"/><path d="M1786.8219,405.6469 L1786.8219,415.6469 L1796.8219,415.6469 L1786.8219,405.6469" fill="#FEFFDD" style="stroke:#181818;stroke-width:1;"/><text fill="#000000" font-family="sans-serif" font-size="13" lengthAdjust="spacing" textLength="320.6519" x="1461.17" y="422.7138">Los casos de uso dependen de interfaces (ports).</text><text fill="#000000" font-family="sans-serif" font-size="13" lengthAdjust="spacing" textLength="242.7725" x="1461.17" y="437.8466">Nunca de detalles de infraestructura.</text></g><!--link REST Controller to ListarProductosInteractor--><g class="link" data-entity-1="REST Controller" data-entity-2="ListarProductosInteractor" data-source-line="31" data-uid="lnk19" id="link_REST Controller_ListarProductosInteractor"><path d="M527.14,307.7269 C532.8,309.1669 538.46,310.4569 544,311.4869 C578.56,317.9269 668.51,308.7869 702,319.4869 C750.88,335.1069 794.7998,365.2076 826.4598,390.3276" fill="none" id="REST Controller-to-ListarProductosInteractor" style="stroke:#181818;stroke-width:1;"/><polygon fill="#181818" points="831.16,394.0569,826.5958,385.3294,827.2431,390.9491,821.6234,391.5964,831.16,394.0569" style="stroke:#181818;stroke-width:1;"/></g><!--link REST Controller to AplicarDescuentoInteractor--><g class="link" data-entity-1="REST Controller" data-entity-2="AplicarDescuentoInteractor" data-source-line="32" data-uid="lnk20" id="link_REST Controller_AplicarDescuentoInteractor"><path d="M527.1,307.9269 C532.77,309.3269 538.45,310.5469 544,311.4869 C593.19,319.8269 945.99,302.7569 993,319.4869 C1035.37,334.5669 1070.4655,364.5765 1095.3955,389.9565" fill="none" id="REST Controller-to-AplicarDescuentoInteractor" style="stroke:#181818;stroke-width:1;"/><polygon fill="#181818" points="1099.6,394.2369,1096.1468,385.0132,1096.0962,390.6699,1090.4396,390.6193,1099.6,394.2369" style="stroke:#181818;stroke-width:1;"/></g><!--link ProductoRepositoryAdapter to ProductoRepository--><g class="link" data-entity-1="ProductoRepositoryAdapter" data-entity-2="ProductoRepository" data-source-line="34" data-uid="lnk21" id="link_ProductoRepositoryAdapter_ProductoRepository"><path d="M705.99,158.3469 C726.16,166.5369 748.28,175.0069 769,181.8869 C997.92,257.9169 1146.63,128.5169 1294,319.4869 C1337.88,376.3469 1343.89,429.4169 1294,481.0769 C1276.39,499.3169 1088.95,478.3169 1066,489.0769 C1020.07,510.6169 995.4712,550.3062 984.4812,570.7862" fill="none" id="ProductoRepositoryAdapter-to-ProductoRepository" style="stroke:#181818;stroke-width:1;stroke-dasharray:7,7;"/><polygon fill="none" points="975.97,586.6469,989.768,573.6233,979.1943,567.9492,975.97,586.6469" style="stroke:#181818;stroke-width:1;"/></g><!--link ListarProductosInteractor to ProductoRepository--><g class="link" data-entity-1="ListarProductosInteractor" data-entity-2="ProductoRepository" data-source-line="35" data-uid="lnk22" id="link_ListarProductosInteractor_ProductoRepository"><path d="M886.26,457.5169 C911.12,497.2069 949.7044,558.7924 963.9144,581.4724" fill="none" id="ListarProductosInteractor-to-ProductoRepository" style="stroke:#181818;stroke-width:1;"/><polygon fill="#181818" points="967.1,586.5569,965.7112,576.8064,964.4453,582.3198,958.9319,581.0539,967.1,586.5569" style="stroke:#181818;stroke-width:1;"/></g><!--link AplicarDescuentoInteractor to ProductoRepository--><g class="link" data-entity-1="AplicarDescuentoInteractor" data-entity-2="ProductoRepository" data-source-line="36" data-uid="lnk23" id="link_AplicarDescuentoInteractor_ProductoRepository"><path d="M1096.31,457.5669 C1086.52,467.5269 1075.72,478.6869 1066,489.0769 C1032.53,524.8769 997.9106,564.4736 982.6506,582.0736" fill="none" id="AplicarDescuentoInteractor-to-ProductoRepository" style="stroke:#181818;stroke-width:1;"/><polygon fill="#181818" points="978.72,586.6069,987.638,582.4273,981.9955,582.8291,981.5937,577.1866,978.72,586.6069" style="stroke:#181818;stroke-width:1;"/></g><!--link CatalogoExternoGateway to CatalogoExternoPort--><g class="link" data-entity-1="CatalogoExternoGateway" data-entity-2="CatalogoExternoPort" data-source-line="38" data-uid="lnk24" id="link_CatalogoExternoGateway_CatalogoExternoPort"><path d="M1005.79,134.9369 C1134.77,144.6969 1334.2,163.7969 1357,189.8869 C1442.16,287.3369 1421.43,368.8369 1357,481.0769 C1314.67,554.8169 1221.2893,581.0806 1189.2993,588.4606" fill="none" id="CatalogoExternoGateway-to-CatalogoExternoPort" style="stroke:#181818;stroke-width:1;stroke-dasharray:7,7;"/><polygon fill="none" points="1171.76,592.5069,1190.6481,594.307,1187.9506,582.6142,1171.76,592.5069" style="stroke:#181818;stroke-width:1;"/></g><!--link AplicarDescuentoInteractor to CatalogoExternoPort--><g class="link" data-entity-1="AplicarDescuentoInteractor" data-entity-2="CatalogoExternoPort" data-source-line="39" data-uid="lnk25" id="link_AplicarDescuentoInteractor_CatalogoExternoPort"><path d="M1133.6,457.5169 C1142.13,497.2069 1155.1904,558.0106 1160.0604,580.6906" fill="none" id="AplicarDescuentoInteractor-to-CatalogoExternoPort" style="stroke:#181818;stroke-width:1;"/><polygon fill="#181818" points="1161.32,586.5569,1163.3414,576.9177,1160.2703,581.6683,1155.5197,578.5972,1161.32,586.5569" style="stroke:#181818;stroke-width:1;"/></g><!--link ProductoRepositoryAdapter to Spring Data JPA--><g class="link" data-entity-1="ProductoRepositoryAdapter" data-entity-2="Spring Data JPA" data-source-line="41" data-uid="lnk26" id="link_ProductoRepositoryAdapter_Spring Data JPA"><path d="M518.02,139.8169 C467.21,148.6569 408.38,163.8369 360,189.8869 C333,204.4269 312.2021,224.4536 295.0421,244.1436" fill="none" id="ProductoRepositoryAdapter-to-Spring Data JPA" style="stroke:#181818;stroke-width:1;"/><polygon fill="#181818" points="291.1,248.6669,300.0286,244.51,294.3851,244.8975,293.9976,239.2539,291.1,248.6669" style="stroke:#181818;stroke-width:1;"/></g><!--link CatalogoExternoGateway to External API--><g class="link" data-entity-1="CatalogoExternoGateway" data-entity-2="External API" data-source-line="42" data-uid="lnk27" id="link_CatalogoExternoGateway_External API"><path d="M840.96,158.2769 C793.77,184.5769 731.371,219.3459 684.201,245.6359" fill="none" id="CatalogoExternoGateway-to-External API" style="stroke:#181818;stroke-width:1;"/><polygon fill="#181818" points="678.96,248.5569,688.7688,247.6693,683.3275,246.1227,684.8741,240.6814,678.96,248.5569" style="stroke:#181818;stroke-width:1;"/></g><!--link Spring Data JPA to H2 Database--><g class="link" data-entity-1="Spring Data JPA" data-entity-2="H2 Database" data-source-line="43" data-uid="lnk28" id="link_Spring Data JPA_H2 Database"><path d="M267,311.6369 C267,336.0069 267,364.0169 267,388.3769" fill="none" id="Spring Data JPA-to-H2 Database" style="stroke:#181818;stroke-width:1;"/><polygon fill="#181818" points="267,394.3769,271,385.3769,267,389.3769,263,385.3769,267,394.3769" style="stroke:#181818;stroke-width:1;"/></g><!--link ListarProductosInteractor to Producto--><g class="link" data-entity-1="ListarProductosInteractor" data-entity-2="Producto" data-source-line="46" data-uid="lnk29" id="link_ListarProductosInteractor_Producto"><path d="M781.64,457.5569 C756.24,465.9869 728.2,474.5769 702,481.0769 C681.43,486.1869 672.13,476.6169 655,489.0769 C630.15,507.1569 617.4484,534.1587 609.6184,558.3387" fill="none" id="ListarProductosInteractor-to-Producto" style="stroke:#181818;stroke-width:1;"/><polygon fill="#181818" points="607.77,564.0469,614.3481,556.7169,609.3104,559.2901,606.7372,554.2523,607.77,564.0469" style="stroke:#181818;stroke-width:1;"/></g><!--link AplicarDescuentoInteractor to Producto--><g class="link" data-entity-1="AplicarDescuentoInteractor" data-entity-2="Producto" data-source-line="47" data-uid="lnk30" id="link_AplicarDescuentoInteractor_Producto"><path d="M1064.74,457.4569 C1042.63,466.8669 1017.21,476.0669 993,481.0769 C974.61,484.8869 670.95,479.1569 655,489.0769 C628.56,505.5269 615.8711,533.4531 608.5211,558.3131" fill="none" id="AplicarDescuentoInteractor-to-Producto" style="stroke:#181818;stroke-width:1;"/><polygon fill="#181818" points="606.82,564.0669,613.2076,556.5703,608.2376,559.272,605.5359,554.3021,606.82,564.0669" style="stroke:#181818;stroke-width:1;"/></g><!--link Producto to Reglas de negocio--><g class="link" data-entity-1="Producto" data-entity-2="Reglas de negocio" data-source-line="48" data-uid="lnk31" id="link_Producto_Reglas de negocio"><path d="M594.39,627.1169 C591.08,645.2669 587.987,662.2443 584.677,680.3843" fill="none" id="Producto-to-Reglas de negocio" style="stroke:#181818;stroke-width:1;"/><polygon fill="#181818" points="583.6,686.2869,589.1506,678.1511,584.4975,681.3681,581.2805,676.715,583.6,686.2869" style="stroke:#181818;stroke-width:1;"/></g><!--link Dominio\n(Reglas de negocio) to GMN32--><g class="link" data-entity-1="Dominio.n.Reglas de negocio." data-entity-2="GMN32" data-source-line="51" data-uid="lnk34" id="link_Dominio.n.Reglas de negocio._GMN32"><path d="M694.0764,609.6144 C694.1327,609.7012 694.1893,609.7883 694.2461,609.8758 C694.4734,610.2256 694.7049,610.5804 694.9406,610.9399 C695.412,611.6589 695.8999,612.3968 696.404,613.1518 C698.4202,616.1718 700.6941,619.4653 703.1937,622.9156 C713.1925,636.7169 726.805,653.0269 742,664.3769 C760.45,678.1569 783.06,689.1269 803.9,697.3969" fill="none" id="Dominio\n(Reglas de negocio)-GMN32" style="stroke:#181818;stroke-width:1;stroke-dasharray:7,7;"/></g><!--link Aplicaci?n\n(Casos de uso) to GMN35--><g class="link" data-entity-1="Aplicaci.n.n.Casos de uso." data-entity-2="GMN35" data-source-line="56" data-uid="lnk37" id="link_Aplicaci.n.n.Casos de uso._GMN35"><path d="M1286.2442,425.7869 C1286.4734,425.7869 1286.7027,425.7869 1286.9319,425.7869 C1287.8487,425.7869 1288.7656,425.7869 1289.6825,425.7869 C1293.35,425.7869 1297.0175,425.7869 1300.685,425.7869 C1308.02,425.7869 1315.3549,425.7869 1322.6898,425.7869 C1337.3597,425.7869 1352.0294,425.7869 1366.6988,425.7869 C1396.0375,425.7869 1425.375,425.7869 1454.71,425.7869" fill="none" id="Aplicaci&#243;n\n(Casos de uso)-GMN35" style="stroke:#181818;stroke-width:1;stroke-dasharray:7,7;"/></g><!--SRC=[XLJBhX914DtFLrJkGhc9i71zGuA0Yhan1DofYxeznT2XwPfqDrw9-Z4kNVi9_9WrtOmmF8RTzDJZd5CllzAsH8ThA56jiA1vs1e2HogWBGnbGGTv3msXXO5JInt4j744NHXYYVuLl9LeUcQtyh25qMIQPVjKS7TaUW4Zfx-HyrziPs8N3ia7jwbI8T3tGCxY_Htyo00-pqkdRG5lcCDNU7XOr4dw_IFh20F2X-cWyiXZvcIUZUUVOCWsE3Q6tAdv_UiO-OIUJatZnCB0O3ffs7uTAHhaM0RCsL4I8Y4BLEGXxFuegnNwMiNKSIxwU4ObUntORMDieeJfCm4FXP3XWXC1VeU1dd7RT6jmA8q0ARtxQuN343rxo0asdcliH-q3kfg1ZpHHlYBsnXC8JqhWAPaRaLSRie6l-egphkN2kRY6-KJHb5reA1ZnMblDmdv6XS58trB1IlDf-IeMmak7xRw_fm6LGyaYOflAz19cPAGwR2cwvLIIpSagZT3ncjQb3EyIgwVybJ6vpyw7fjljjrNnMaHBCREiRI9wlP_zIqLjwsI5U2cahQDNOhAhCnY9NMhdJPXBGQqrY1KytUxhpA9xOsUpyziGdOvtlfgF_VG1QczabMyM-J2BjrKV-nv6E5hE9pVBB0U29mw1ry2B6uiXupysaE_Po_tS_QurzCJsaK6nPLa_AtUZYbmSpg_LaEwPxsMo3b01x-6TBfOXehST5W5ubASw-lb_jQgtFfp2JYczzlUHqyOgJ5ieNJHf8tNp_1y8_GC0]--></g></svg>