<svg xmlns="http://www.w3.org/2000/svg" xmlns:xlink="http://www.w3.org/1999/xlink" contentStyleType="text/css" data-diagram-type="CLASS" height="549px" preserveAspectRatio="none" style="width:2997px;height:549px;background:#FFFFFF;" version="1.1" viewBox="0 0 2997 549" width="2997px" zoomAndPan="magnify"><title>Unidad 4 - Interfaces y Adaptadores 
(relaci&#243;n con capas anteriores)</title><defs/><g><g class="title" data-source-line="3"><text fill="#000000" font-family="sans-serif" font-size="14" font-weight="bold" lengthAdjust="spacing" textLength="285.4414" x="1346.6914" y="22.9951">Unidad 4 - Interfaces y Adaptadores</text><text fill="#000000" font-family="sans-serif" font-size="14" font-weight="bold" lengthAdjust="spacing" textLength="245.834" x="1368.9321" y="39.292">(relaci&#243;n con capas anteriores)</text></g><!--cluster Aplicaci?n--><g class="cluster" data-entity="Aplicaci.n" data-source-line="7" data-uid="ent0002" id="cluster_Aplicaci.n"><rect fill="none" height="482.47" rx="2.5" ry="2.5" style="stroke:#000000;stroke-width:1.5;" width="1479" x="1508" y="60.5938"/><text fill="#000000" font-family="sans-serif" font-size="14" font-weight="bold" lengthAdjust="spacing" textLength="80.8828" x="2207.0586" y="75.5889">Aplicaci&#243;n</text></g><!--cluster port--><g class="cluster" data-entity="port" data-source-line="9" data-uid="ent0005" id="cluster_port"><rect fill="none" height="182.3" rx="2.5" ry="2.5" style="stroke:#000000;stroke-width:1.5;" width="1124" x="1532" y="336.7638"/><text fill="#000000" font-family="sans-serif" font-size="14" font-weight="bold" lengthAdjust="spacing" textLength="33.2363" x="2077.3818" y="351.7589">port</text></g><!--cluster in--><g class="cluster" data-entity="in" data-source-line="8" data-uid="ent0003" id="cluster_in"><rect fill="none" height="115.3" rx="2.5" ry="2.5" style="stroke:#000000;stroke-width:1.5;" width="510" x="1556" y="379.7638"/><text fill="#000000" font-family="sans-serif" font-size="14" font-weight="bold" lengthAdjust="spacing" textLength="14.7656" x="1803.6172" y="394.7589">in</text></g><!--cluster out--><g class="cluster" data-entity="out" data-source-line="14" data-uid="ent0006" id="cluster_out"><rect fill="none" height="115.3" rx="2.5" ry="2.5" style="stroke:#000000;stroke-width:1.5;" width="542" x="2090" y="379.7638"/><text fill="#000000" font-family="sans-serif" font-size="14" font-weight="bold" lengthAdjust="spacing" textLength="26.2773" x="2347.8613" y="394.7589">out</text></g><!--cluster dto--><g class="cluster" data-entity="dto" data-source-line="20" data-uid="ent0008" id="cluster_dto"><rect fill="none" height="131.59" rx="2.5" ry="2.5" style="stroke:#000000;stroke-width:1.5;" width="463" x="1540" y="119.8938"/><text fill="#000000" font-family="sans-serif" font-size="14" font-weight="bold" lengthAdjust="spacing" textLength="26.332" x="1758.334" y="134.8889">dto</text></g><!--cluster service--><g class="cluster" data-entity="service" data-source-line="31" data-uid="ent0011" id="cluster_service"><rect fill="none" height="164.19" rx="2.5" ry="2.5" style="stroke:#000000;stroke-width:1.5;" width="652" x="2035" y="103.5938"/><text fill="#000000" font-family="sans-serif" font-size="14" font-weight="bold" lengthAdjust="spacing" textLength="56.4512" x="2332.7744" y="118.5889">service</text></g><!--cluster Infraestructura / Adaptadores--><g class="cluster" data-entity="Infraestructura . Adaptadores" data-source-line="48" data-uid="ent0019" id="cluster_Infraestructura . Adaptadores"><rect fill="none" height="223.15" rx="2.5" ry="2.5" style="stroke:#000000;stroke-width:1.5;" width="1477" x="7" y="64.6138"/><text fill="#000000" font-family="sans-serif" font-size="14" font-weight="bold" lengthAdjust="spacing" textLength="236.0176" x="627.4912" y="79.6089">Infraestructura / Adaptadores</text></g><!--cluster Integraci?n Externa--><g class="cluster" data-entity="Integraci.n Externa" data-source-line="63" data-uid="ent0025" id="cluster_Integraci.n Externa"><rect fill="none" height="156.15" rx="2.5" ry="2.5" style="stroke:#000000;stroke-width:1.5;" width="815" x="645" y="107.6138"/><text fill="#000000" font-family="sans-serif" font-size="14" font-weight="bold" lengthAdjust="spacing" textLength="156.3926" x="974.3037" y="122.6089">Integraci&#243;n Externa</text></g><!--class ProductoRepository--><g class="entity" data-entity="ProductoRepository" data-source-line="42" data-uid="ent0014" id="entity_ProductoRepository"><rect fill="#F1F1F1" height="48" rx="2.5" ry="2.5" style="stroke:#181818;stroke-width:0.5;" width="169.3477" x="2672.33" y="422.9138"/><ellipse cx="2687.33" cy="438.9138" fill="#ADD1B2" rx="11" ry="11" style="stroke:#181818;stroke-width:1;"/><path d="M2690.2988,444.5544 Q2689.7206,444.8513 2689.08,444.9919 Q2688.4394,445.1481 2687.7363,445.1481 Q2685.2363,445.1481 2683.9081,443.5075 Q2682.5956,441.8513 2682.5956,438.7263 Q2682.5956,435.6013 2683.9081,433.945 Q2685.2363,432.2888 2687.7363,432.2888 Q2688.4394,432.2888 2689.08,432.445 Q2689.7363,432.6013 2690.2988,432.8981 L2690.2988,435.6169 Q2689.6738,435.0388 2689.08,434.7731 Q2688.4863,434.4919 2687.8613,434.4919 Q2686.5175,434.4919 2685.83,435.57 Q2685.1425,436.6325 2685.1425,438.7263 Q2685.1425,440.82 2685.83,441.8981 Q2686.5175,442.9606 2687.8613,442.9606 Q2688.4863,442.9606 2689.08,442.695 Q2689.6738,442.4138 2690.2988,441.8356 L2690.2988,444.5544 Z " fill="#000000"/><text fill="#000000" font-family="sans-serif" font-size="14" lengthAdjust="spacing" textLength="137.3477" x="2701.33" y="443.7604">ProductoRepository</text><line style="stroke:#181818;stroke-width:0.5;" x1="2673.33" x2="2840.6777" y1="454.9138" y2="454.9138"/><line style="stroke:#181818;stroke-width:0.5;" x1="2673.33" x2="2840.6777" y1="462.9138" y2="462.9138"/></g><!--class Producto--><g class="entity" data-entity="Producto" data-source-line="44" data-uid="ent0017" id="entity_Producto"><rect fill="#F1F1F1" height="48" rx="2.5" ry="2.5" style="stroke:#181818;stroke-width:0.5;" width="94.2754" x="2876.86" y="422.9138"/><ellipse cx="2891.86" cy="438.9138" fill="#ADD1B2" rx="11" ry="11" style="stroke:#181818;stroke-width:1;"/><path d="M2894.8288,444.5544 Q2894.2506,444.8513 2893.61,444.9919 Q2892.9694,445.1481 2892.2663,445.1481 Q2889.7663,445.1481 2888.4381,443.5075 Q2887.1256,441.8513 2887.1256,438.7263 Q2887.1256,435.6013 2888.4381,433.945 Q2889.7663,432.2888 2892.2663,432.2888 Q2892.9694,432.2888 2893.61,432.445 Q2894.2663,432.6013 2894.8288,432.8981 L2894.8288,435.6169 Q2894.2038,435.0388 2893.61,434.7731 Q2893.0163,434.4919 2892.3913,434.4919 Q2891.0475,434.4919 2890.36,435.57 Q2889.6725,436.6325 2889.6725,438.7263 Q2889.6725,440.82 2890.36,441.8981 Q2891.0475,442.9606 2892.3913,442.9606 Q2893.0163,442.9606 2893.61,442.695 Q2894.2038,442.4138 2894.8288,441.8356 L2894.8288,444.5544 Z " fill="#000000"/><text fill="#000000" font-family="sans-serif" font-size="14" lengthAdjust="spacing" textLength="62.2754" x="2905.86" y="443.7604">Producto</text><line style="stroke:#181818;stroke-width:0.5;" x1="2877.86" x2="2970.1354" y1="454.9138" y2="454.9138"/><line style="stroke:#181818;stroke-width:0.5;" x1="2877.86" x2="2970.1354" y1="462.9138" y2="462.9138"/></g><!--class AplicarDescuentoUseCase--><g class="entity" data-entity="AplicarDescuentoUseCase" data-source-line="9" data-uid="ent0004" id="entity_AplicarDescuentoUseCase"><rect fill="#F1F1F1" height="64.2969" rx="2.5" ry="2.5" style="stroke:#181818;stroke-width:0.5;" width="477.541" x="1572.23" y="414.7638"/><ellipse cx="1715.0054" cy="430.7638" fill="#B4A7E5" rx="11" ry="11" style="stroke:#181818;stroke-width:1;"/><path d="M1710.9273,426.5294 L1710.9273,424.3731 L1718.3179,424.3731 L1718.3179,426.5294 L1715.8491,426.5294 L1715.8491,434.6075 L1718.3179,434.6075 L1718.3179,436.7638 L1710.9273,436.7638 L1710.9273,434.6075 L1713.396,434.6075 L1713.396,426.5294 L1710.9273,426.5294 Z " fill="#000000"/><text fill="#000000" font-family="sans-serif" font-size="14" font-style="italic" lengthAdjust="spacing" textLength="183.4902" x="1735.5054" y="435.6104">AplicarDescuentoUseCase</text><line style="stroke:#181818;stroke-width:0.5;" x1="1573.23" x2="2048.771" y1="446.7638" y2="446.7638"/><line style="stroke:#181818;stroke-width:0.5;" x1="1573.23" x2="2048.771" y1="454.7638" y2="454.7638"/><text fill="#000000" font-family="sans-serif" font-size="14" lengthAdjust="spacing" textLength="465.541" x="1578.23" y="471.7589">+ejecutar(input:AplicarDescuentoInput) : AplicarDescuentoOutput</text></g><!--class CatalogoExternoPort--><g class="entity" data-entity="CatalogoExternoPort" data-source-line="15" data-uid="ent0007" id="entity_CatalogoExternoPort"><rect fill="#F1F1F1" height="64.2969" rx="2.5" ry="2.5" style="stroke:#181818;stroke-width:0.5;" width="510.0869" x="2105.96" y="414.7638"/><ellipse cx="2284.2481" cy="430.7638" fill="#B4A7E5" rx="11" ry="11" style="stroke:#181818;stroke-width:1;"/><path d="M2280.17,426.5294 L2280.17,424.3731 L2287.5606,424.3731 L2287.5606,426.5294 L2285.0918,426.5294 L2285.0918,434.6075 L2287.5606,434.6075 L2287.5606,436.7638 L2280.17,436.7638 L2280.17,434.6075 L2282.6387,434.6075 L2282.6387,426.5294 L2280.17,426.5294 Z " fill="#000000"/><text fill="#000000" font-family="sans-serif" font-size="14" font-style="italic" lengthAdjust="spacing" textLength="145.0107" x="2304.7481" y="435.6104">CatalogoExternoPort</text><line style="stroke:#181818;stroke-width:0.5;" x1="2106.96" x2="2615.0469" y1="446.7638" y2="446.7638"/><line style="stroke:#181818;stroke-width:0.5;" x1="2106.96" x2="2615.0469" y1="454.7638" y2="454.7638"/><text fill="#000000" font-family="sans-serif" font-size="14" lengthAdjust="spacing" textLength="498.0869" x="2111.96" y="471.7589">+obtenerPrecioRecomendado(sku:String) : java.util.Optional&lt;Double&gt;</text></g><!--class AplicarDescuentoInput--><g class="entity" data-entity="AplicarDescuentoInput" data-source-line="21" data-uid="ent0009" id="entity_AplicarDescuentoInput"><rect fill="#F1F1F1" height="80.5938" rx="2.5" ry="2.5" style="stroke:#181818;stroke-width:0.5;" width="191.3252" x="1556.34" y="154.8938"/><ellipse cx="1571.34" cy="170.8938" fill="#ADD1B2" rx="11" ry="11" style="stroke:#181818;stroke-width:1;"/><path d="M1574.3088,176.5344 Q1573.7306,176.8313 1573.09,176.9719 Q1572.4494,177.1281 1571.7463,177.1281 Q1569.2463,177.1281 1567.9181,175.4875 Q1566.6056,173.8313 1566.6056,170.7063 Q1566.6056,167.5813 1567.9181,165.925 Q1569.2463,164.2688 1571.7463,164.2688 Q1572.4494,164.2688 1573.09,164.425 Q1573.7463,164.5813 1574.3088,164.8781 L1574.3088,167.5969 Q1573.6838,167.0188 1573.09,166.7531 Q1572.4963,166.4719 1571.8713,166.4719 Q1570.5275,166.4719 1569.84,167.55 Q1569.1525,168.6125 1569.1525,170.7063 Q1569.1525,172.8 1569.84,173.8781 Q1570.5275,174.9406 1571.8713,174.9406 Q1572.4963,174.9406 1573.09,174.675 Q1573.6838,174.3938 1574.3088,173.8156 L1574.3088,176.5344 Z " fill="#000000"/><text fill="#000000" font-family="sans-serif" font-size="14" lengthAdjust="spacing" textLength="159.3252" x="1585.34" y="175.7404">AplicarDescuentoInput</text><line style="stroke:#181818;stroke-width:0.5;" x1="1557.34" x2="1746.6652" y1="186.8938" y2="186.8938"/><text fill="#000000" font-family="sans-serif" font-size="14" lengthAdjust="spacing" textLength="142.1807" x="1562.34" y="203.8889">+idProducto : String</text><text fill="#000000" font-family="sans-serif" font-size="14" lengthAdjust="spacing" textLength="148.0254" x="1562.34" y="220.1857">+porcentaje : double</text><line style="stroke:#181818;stroke-width:0.5;" x1="1557.34" x2="1746.6652" y1="227.4875" y2="227.4875"/></g><!--class AplicarDescuentoOutput--><g class="entity" data-entity="AplicarDescuentoOutput" data-source-line="25" data-uid="ent0010" id="entity_AplicarDescuentoOutput"><rect fill="#F1F1F1" height="80.5938" rx="2.5" ry="2.5" style="stroke:#181818;stroke-width:0.5;" width="203.7051" x="1783.15" y="154.8938"/><ellipse cx="1798.15" cy="170.8938" fill="#ADD1B2" rx="11" ry="11" style="stroke:#181818;stroke-width:1;"/><path d="M1801.1188,176.5344 Q1800.5406,176.8313 1799.9,176.9719 Q1799.2594,177.1281 1798.5563,177.1281 Q1796.0563,177.1281 1794.7281,175.4875 Q1793.4156,173.8313 1793.4156,170.7063 Q1793.4156,167.5813 1794.7281,165.925 Q1796.0563,164.2688 1798.5563,164.2688 Q1799.2594,164.2688 1799.9,164.425 Q1800.5563,164.5813 1801.1188,164.8781 L1801.1188,167.5969 Q1800.4938,167.0188 1799.9,166.7531 Q1799.3063,166.4719 1798.6813,166.4719 Q1797.3375,166.4719 1796.65,167.55 Q1795.9625,168.6125 1795.9625,170.7063 Q1795.9625,172.8 1796.65,173.8781 Q1797.3375,174.9406 1798.6813,174.9406 Q1799.3063,174.9406 1799.9,174.675 Q1800.4938,174.3938 1801.1188,173.8156 L1801.1188,176.5344 Z " fill="#000000"/><text fill="#000000" font-family="sans-serif" font-size="14" lengthAdjust="spacing" textLength="171.7051" x="1812.15" y="175.7404">AplicarDescuentoOutput</text><line style="stroke:#181818;stroke-width:0.5;" x1="1784.15" x2="1985.8551" y1="186.8938" y2="186.8938"/><text fill="#000000" font-family="sans-serif" font-size="14" lengthAdjust="spacing" textLength="142.1807" x="1789.15" y="203.8889">+idProducto : String</text><text fill="#000000" font-family="sans-serif" font-size="14" lengthAdjust="spacing" textLength="149.7549" x="1789.15" y="220.1857">+precioFinal : double</text><line style="stroke:#181818;stroke-width:0.5;" x1="1784.15" x2="1985.8551" y1="227.4875" y2="227.4875"/></g><!--class AplicarDescuentoInteractor--><g class="entity" data-entity="AplicarDescuentoInteractor" data-source-line="32" data-uid="ent0012" id="entity_AplicarDescuentoInteractor"><rect fill="#F1F1F1" height="113.1875" rx="2.5" ry="2.5" style="stroke:#181818;stroke-width:0.5;" width="619.4414" x="2051.28" y="138.5938"/><ellipse cx="2260.74" cy="154.5938" fill="#ADD1B2" rx="11" ry="11" style="stroke:#181818;stroke-width:1;"/><path d="M2263.7087,160.2344 Q2263.1306,160.5313 2262.49,160.6719 Q2261.8493,160.8281 2261.1462,160.8281 Q2258.6462,160.8281 2257.3181,159.1875 Q2256.0056,157.5313 2256.0056,154.4063 Q2256.0056,151.2813 2257.3181,149.625 Q2258.6462,147.9688 2261.1462,147.9688 Q2261.8493,147.9688 2262.49,148.125 Q2263.1462,148.2813 2263.7087,148.5781 L2263.7087,151.2969 Q2263.0837,150.7188 2262.49,150.4531 Q2261.8962,150.1719 2261.2712,150.1719 Q2259.9275,150.1719 2259.24,151.25 Q2258.5525,152.3125 2258.5525,154.4063 Q2258.5525,156.5 2259.24,157.5781 Q2259.9275,158.6406 2261.2712,158.6406 Q2261.8962,158.6406 2262.49,158.375 Q2263.0837,158.0938 2263.7087,157.5156 L2263.7087,160.2344 Z " fill="#000000"/><text fill="#000000" font-family="sans-serif" font-size="14" lengthAdjust="spacing" textLength="192.0215" x="2281.24" y="159.4404">AplicarDescuentoInteractor</text><line style="stroke:#181818;stroke-width:0.5;" x1="2052.28" x2="2669.7214" y1="170.5938" y2="170.5938"/><text fill="#000000" font-family="sans-serif" font-size="14" lengthAdjust="spacing" textLength="187.8379" x="2057.28" y="187.5889">-repo : ProductoRepository</text><text fill="#000000" font-family="sans-serif" font-size="14" lengthAdjust="spacing" textLength="223.9316" x="2057.28" y="203.8857">-catalogo : CatalogoExternoPort</text><line style="stroke:#181818;stroke-width:1;" x1="2052.28" x2="2669.7214" y1="211.1875" y2="211.1875"/><text fill="#000000" font-family="sans-serif" font-size="14" lengthAdjust="spacing" textLength="607.4414" x="2057.28" y="228.1826">+AplicarDescuentoInteractor(repo:ProductoRepository, catalogo:CatalogoExternoPort)</text><text fill="#000000" font-family="sans-serif" font-size="14" lengthAdjust="spacing" textLength="465.541" x="2057.28" y="244.4795">+ejecutar(input:AplicarDescuentoInput) : AplicarDescuentoOutput</text></g><!--class ProductoController--><g class="entity" data-entity="ProductoController" data-source-line="50" data-uid="ent0020" id="entity_ProductoController"><rect fill="#F1F1F1" height="88.8594" rx="2.5" ry="2.5" style="stroke:#181818;stroke-width:0.5;" width="291.8633" x="23.07" y="150.7638"/><ellipse cx="99.0275" cy="170.8966" fill="#ADD1B2" rx="11" ry="11" style="stroke:#181818;stroke-width:1;"/><path d="M101.9963,176.5372 Q101.4181,176.8341 100.7775,176.9747 Q100.1369,177.1309 99.4338,177.1309 Q96.9338,177.1309 95.6056,175.4903 Q94.2931,173.8341 94.2931,170.7091 Q94.2931,167.5841 95.6056,165.9278 Q96.9338,164.2716 99.4338,164.2716 Q100.1369,164.2716 100.7775,164.4278 Q101.4338,164.5841 101.9963,164.8809 L101.9963,167.5997 Q101.3713,167.0216 100.7775,166.7559 Q100.1838,166.4747 99.5588,166.4747 Q98.215,166.4747 97.5275,167.5528 Q96.84,168.6153 96.84,170.7091 Q96.84,172.8028 97.5275,173.8809 Q98.215,174.9434 99.5588,174.9434 Q100.1838,174.9434 100.7775,174.6778 Q101.3713,174.3966 101.9963,173.8184 L101.9963,176.5372 Z " fill="#000000"/><text fill="#000000" font-family="sans-serif" font-size="12" font-style="italic" lengthAdjust="spacing" textLength="97.1836" x="136.6598" y="166.9024">&#171;REST Adapter&#187;</text><text fill="#000000" font-family="sans-serif" font-size="14" lengthAdjust="spacing" textLength="131.4482" x="119.5275" y="182.7276">ProductoController</text><line style="stroke:#181818;stroke-width:0.5;" x1="24.07" x2="313.9333" y1="191.0294" y2="191.0294"/><text fill="#000000" font-family="sans-serif" font-size="14" lengthAdjust="spacing" textLength="261.2012" x="29.07" y="208.0245">-useCase : AplicarDescuentoUseCase</text><line style="stroke:#181818;stroke-width:1;" x1="24.07" x2="313.9333" y1="215.3263" y2="215.3263"/><text fill="#000000" font-family="sans-serif" font-size="14" lengthAdjust="spacing" textLength="279.8633" x="29.07" y="232.3214">+aplicarDescuento(req) : HttpResponse</text></g><g class="entity" data-entity="GMN22" data-source-line="58" data-uid="ent0023" id="entity_GMN22"><path d="M350.39,175.0538 L350.39,191.1938 L315.42,195.1938 L350.39,199.1938 L350.39,215.3194 A0,0 0 0 0 350.39,215.3194 L625.6009,215.3194 A0,0 0 0 0 625.6009,215.3194 L625.6009,185.0538 L615.6009,175.0538 L350.39,175.0538 A0,0 0 0 0 350.39,175.0538" fill="#FEFFDD" style="stroke:#181818;stroke-width:0.5;"/><path d="M615.6009,175.0538 L615.6009,185.0538 L625.6009,185.0538 L615.6009,175.0538" fill="#FEFFDD" style="stroke:#181818;stroke-width:0.5;"/><text fill="#000000" font-family="sans-serif" font-size="13" lengthAdjust="spacing" textLength="254.2109" x="356.39" y="192.1206">Traduce HTTP &#8596; DTOs del caso de uso.</text><text fill="#000000" font-family="sans-serif" font-size="13" lengthAdjust="spacing" textLength="142.5811" x="356.39" y="207.2535">Sin l&#243;gica de negocio.</text></g><!--class CatalogoExternoGateway--><g class="entity" data-entity="CatalogoExternoGateway" data-source-line="64" data-uid="ent0026" id="entity_CatalogoExternoGateway"><rect fill="#F1F1F1" height="105.1563" rx="2.5" ry="2.5" style="stroke:#181818;stroke-width:0.5;" width="510.0869" x="660.96" y="142.6138"/><ellipse cx="822.4522" cy="162.7466" fill="#ADD1B2" rx="11" ry="11" style="stroke:#181818;stroke-width:1;"/><path d="M825.4209,168.3872 Q824.8428,168.6841 824.2022,168.8247 Q823.5616,168.9809 822.8584,168.9809 Q820.3584,168.9809 819.0303,167.3403 Q817.7178,165.6841 817.7178,162.5591 Q817.7178,159.4341 819.0303,157.7778 Q820.3584,156.1216 822.8584,156.1216 Q823.5616,156.1216 824.2022,156.2778 Q824.8584,156.4341 825.4209,156.7309 L825.4209,159.4497 Q824.7959,158.8716 824.2022,158.6059 Q823.6084,158.3247 822.9834,158.3247 Q821.6397,158.3247 820.9522,159.4028 Q820.2647,160.4653 820.2647,162.5591 Q820.2647,164.6528 820.9522,165.7309 Q821.6397,166.7934 822.9834,166.7934 Q823.6084,166.7934 824.2022,166.5278 Q824.7959,166.2466 825.4209,165.6684 L825.4209,168.3872 Z " fill="#000000"/><text fill="#000000" font-family="sans-serif" font-size="12" font-style="italic" lengthAdjust="spacing" textLength="67.6934" x="898.4068" y="158.7524">&#171;Gateway&#187;</text><text fill="#000000" font-family="sans-serif" font-size="14" lengthAdjust="spacing" textLength="178.6025" x="842.9522" y="174.5776">CatalogoExternoGateway</text><line style="stroke:#181818;stroke-width:0.5;" x1="661.96" x2="1170.0469" y1="182.8794" y2="182.8794"/><text fill="#000000" font-family="sans-serif" font-size="14" lengthAdjust="spacing" textLength="119.2803" x="666.96" y="199.8745">-http : WebClient</text><line style="stroke:#181818;stroke-width:1;" x1="661.96" x2="1170.0469" y1="207.1763" y2="207.1763"/><text fill="#000000" font-family="sans-serif" font-size="14" lengthAdjust="spacing" textLength="306.585" x="666.96" y="224.1714">+CatalogoExternoGateway(http:WebClient)</text><text fill="#000000" font-family="sans-serif" font-size="14" lengthAdjust="spacing" textLength="498.0869" x="666.96" y="240.4682">+obtenerPrecioRecomendado(sku:String) : java.util.Optional&lt;Double&gt;</text></g><g class="entity" data-entity="GMN28" data-source-line="73" data-uid="ent0029" id="entity_GMN28"><path d="M1206.22,167.4938 L1206.22,191.1938 L1171.23,195.1938 L1206.22,199.1938 L1206.22,222.8922 A0,0 0 0 0 1206.22,222.8922 L1443.7703,222.8922 A0,0 0 0 0 1443.7703,222.8922 L1443.7703,177.4938 L1433.7703,167.4938 L1206.22,167.4938 A0,0 0 0 0 1206.22,167.4938" fill="#FEFFDD" style="stroke:#181818;stroke-width:0.5;"/><path d="M1433.7703,167.4938 L1433.7703,177.4938 L1443.7703,177.4938 L1433.7703,167.4938" fill="#FEFFDD" style="stroke:#181818;stroke-width:0.5;"/><text fill="#000000" font-family="sans-serif" font-size="13" lengthAdjust="spacing" textLength="138.8423" x="1212.22" y="184.5606">Anti-corruption layer:</text><text fill="#000000" font-family="sans-serif" font-size="13" lengthAdjust="spacing" textLength="216.5503" x="1212.22" y="199.6935">mapea modelos/errores externos</text><text fill="#000000" font-family="sans-serif" font-size="13" lengthAdjust="spacing" textLength="105.3076" x="1212.22" y="214.8263">a tipos internos.</text></g><!--link AplicarDescuentoInteractor to AplicarDescuentoUseCase--><g class="link" data-entity-1="AplicarDescuentoInteractor" data-entity-2="AplicarDescuentoUseCase" data-source-line="41" data-uid="lnk13" id="link_AplicarDescuentoInteractor_AplicarDescuentoUseCase"><path codeLine="41" d="M2273.9,252.2638 C2232.62,276.5838 2181.76,303.4038 2133,320.7638 C2114.69,327.2838 2108.62,323.1938 2090,328.7638 C2014.13,351.4738 1947.1492,380.3735 1891.5092,406.6235" fill="none" id="AplicarDescuentoInteractor-to-AplicarDescuentoUseCase" style="stroke:#181818;stroke-width:1;stroke-dasharray:7,7;"/><polygon fill="none" points="1875.23,414.3038,1894.0693,412.0499,1888.9491,401.1971,1875.23,414.3038" style="stroke:#181818;stroke-width:1;"/></g><!--link AplicarDescuentoUseCase to AplicarDescuentoInteractor--><g class="link" data-entity-1="AplicarDescuentoUseCase" data-entity-2="AplicarDescuentoInteractor" data-source-line="82" data-uid="lnk32" id="link_AplicarDescuentoUseCase_AplicarDescuentoInteractor"><path codeLine="82" d="M1815.36,414.4438 C1821.83,380.9038 1837.44,329.2038 1874,303.7638 C1885.79,295.5638 1988.84,298.1438 2003,295.7638 C2064.07,285.4938 2123.9231,270.5799 2182.0731,253.8799" fill="none" id="AplicarDescuentoUseCase-to-AplicarDescuentoInteractor" style="stroke:#181818;stroke-width:1;"/><polygon fill="#181818" points="2187.84,252.2238,2178.0855,250.8634,2183.0343,253.6039,2180.2938,258.5526,2187.84,252.2238" style="stroke:#181818;stroke-width:1;"/><text fill="#000000" font-family="sans-serif" font-size="13" lengthAdjust="spacing" textLength="249.4819" x="1875" y="316.8306">implementaci&#243;n (en tiempo de wiring)</text></g><!--link AplicarDescuentoInteractor to ProductoRepository--><g class="link" data-entity-1="AplicarDescuentoInteractor" data-entity-2="ProductoRepository" data-source-line="42" data-uid="lnk15" id="link_AplicarDescuentoInteractor_ProductoRepository"><path codeLine="42" d="M2453.42,252.1738 C2495.95,276.0338 2547.81,302.5238 2597,320.7638 C2611.96,326.3138 2617.91,321.2738 2632,328.7638 C2676.38,352.3738 2712.8118,391.2437 2735.0518,418.0837" fill="none" id="AplicarDescuentoInteractor-to-ProductoRepository" style="stroke:#181818;stroke-width:1;"/><polygon fill="#181818" points="2738.88,422.7038,2736.2177,413.2216,2735.6898,418.8537,2730.0576,418.3259,2738.88,422.7038" style="stroke:#181818;stroke-width:1;"/><text fill="#000000" font-family="sans-serif" font-size="13" lengthAdjust="spacing" textLength="145.7422" x="2598" y="316.8306">usa (port out dominio)</text></g><!--link AplicarDescuentoInteractor to CatalogoExternoPort--><g class="link" data-entity-1="AplicarDescuentoInteractor" data-entity-2="CatalogoExternoPort" data-source-line="43" data-uid="lnk16" id="link_AplicarDescuentoInteractor_CatalogoExternoPort"><path codeLine="43" d="M2255.12,252.1238 C2237.33,266.4838 2221.32,283.6638 2211,303.7638 C2187.44,349.6438 2232.3295,386.0312 2280.8795,411.5612" fill="none" id="AplicarDescuentoInteractor-to-CatalogoExternoPort" style="stroke:#181818;stroke-width:1;"/><polygon fill="#181818" points="2286.19,414.3538,2280.0859,406.6246,2281.7646,412.0266,2276.3625,413.7053,2286.19,414.3538" style="stroke:#181818;stroke-width:1;"/><text fill="#000000" font-family="sans-serif" font-size="13" lengthAdjust="spacing" textLength="158.9644" x="2212" y="316.8306">usa (port out aplicaci&#243;n)</text></g><!--link AplicarDescuentoInteractor to Producto--><g class="link" data-entity-1="AplicarDescuentoInteractor" data-entity-2="Producto" data-source-line="44" data-uid="lnk18" id="link_AplicarDescuentoInteractor_Producto"><path codeLine="44" d="M2555.54,252.2538 C2636.67,274.8138 2732.08,300.2738 2819,320.7638 C2836.65,324.9238 2844.36,318.0738 2859,328.7638 C2890.74,351.9538 2907.0618,389.8723 2915.7418,416.8423" fill="none" id="AplicarDescuentoInteractor-to-Producto" style="stroke:#181818;stroke-width:1;stroke-dasharray:7,7;"/><polygon fill="#181818" points="2917.58,422.5538,2918.6304,412.7611,2916.0482,417.7942,2911.0151,415.212,2917.58,422.5538" style="stroke:#181818;stroke-width:1;"/><text fill="#000000" font-family="sans-serif" font-size="13" lengthAdjust="spacing" textLength="169.6982" x="2820" y="316.8306">orquesta comportamiento</text></g><!--link ProductoController to AplicarDescuentoUseCase--><g class="link" data-entity-1="ProductoController" data-entity-2="AplicarDescuentoUseCase" data-source-line="55" data-uid="lnk21" id="link_ProductoController_AplicarDescuentoUseCase"><path codeLine="55" d="M226.59,239.8838 C256.7,260.3838 295.1,283.0638 333,295.7638 C556.37,370.6538 1207.6287,414.8004 1565.7487,434.1304" fill="none" id="ProductoController-to-AplicarDescuentoUseCase" style="stroke:#181818;stroke-width:1;"/><polygon fill="#181818" points="1571.74,434.4538,1562.9687,429.9745,1566.7473,434.1843,1562.5375,437.9629,1571.74,434.4538" style="stroke:#181818;stroke-width:1;"/><text fill="#000000" font-family="sans-serif" font-size="13" lengthAdjust="spacing" textLength="99.5186" x="425" y="316.8306">invoca (port.in)</text></g><!--link ProductoController to AplicarDescuentoUseCase--><g class="link" data-entity-1="ProductoController" data-entity-2="AplicarDescuentoUseCase" data-source-line="81" data-uid="lnk31" id="link_ProductoController_AplicarDescuentoUseCase"><path codeLine="81" d="M225.15,240.0938 C255.34,261.0638 294.25,284.0838 333,295.7638 C375.59,308.6038 488.65,300.4138 533,303.7638 C896.55,331.2238 1310.4086,380.732 1566.7386,413.542" fill="none" id="ProductoController-to-AplicarDescuentoUseCase-1" style="stroke:#181818;stroke-width:1;"/><polygon fill="#181818" points="1572.69,414.3038,1564.2707,409.1935,1567.7305,413.6689,1563.255,417.1287,1572.69,414.3038" style="stroke:#181818;stroke-width:1;"/><text fill="#000000" font-family="sans-serif" font-size="13" lengthAdjust="spacing" textLength="131.1616" x="708" y="316.8306">depende de interfaz</text></g><!--link CatalogoExternoGateway to CatalogoExternoPort--><g class="link" data-entity-1="CatalogoExternoGateway" data-entity-2="CatalogoExternoPort" data-source-line="71" data-uid="lnk27" id="link_CatalogoExternoGateway_CatalogoExternoPort"><path codeLine="71" d="M1033.63,248.2038 C1080.96,266.7138 1136.65,285.4838 1189,295.7638 C1476.17,352.1438 1554.55,309.8738 1847,320.7638 C1895.67,322.5838 2018.34,318.7438 2066,328.7638 C2150.13,346.4538 2225.0689,378.25 2283.4389,406.51" fill="none" id="CatalogoExternoGateway-to-CatalogoExternoPort" style="stroke:#181818;stroke-width:1;stroke-dasharray:7,7;"/><polygon fill="none" points="2299.64,414.3538,2286.0535,401.1096,2280.8243,411.9103,2299.64,414.3538" style="stroke:#181818;stroke-width:1;"/></g><!--SRC=[jLR1RkCs4BthAmPxYOIDdGBTa-0Q46nlrq0G6xAplVGoaIPQ9ZAf9QcatkrU-mFjd-mdv4_w9HrAikp4ajD3Qy2mIGvdtimyFjBS2rcWnWqaEHeJMQl5JMbfdYYv4by8Vl1CQr9WSeyPhUms9z2KM9HPJfuLbiVNKgIOmZiOm5nQqhUOa84jH2aM5bEbUVIhz3Nbc8Ydxn8u0YHOe05qzi9P19xddS5FNH-8bfVpIJIPF_rv1NuJxSUWszXheCARgCX5KaTy0ryzW7QbKDeEHJCB87QWeTwYfsIIagHLruOcQAYn0tWBT4T9QL7xN9dIXYytpDri0E6HfqLfUQLoyyrptoCyghJ7W2PeCLUPclt6Cr8jsV00ZBgn94alkI52nPIe3KckZVBDVHckk9yoSrZky067fHNvS55OeIJcewagRt8Qz-19hTf1gRW1dMaU017fKgkqJApYS7NWTesJItWFtX6lfLNSDcoV_xfQ_pP0bVvxmNaTHtYUc27z819wBJckDN8etG8OCESB5tg78kQX4MooRIsIfbLirT6rdTcWXTqVrdV1mkDGvssCi2D2yBzmz4HnXiFVntqdvlJEmM3SKKb6L1e4tvq6uDF0hTm8ALJmkhEkO_BI6-xb87WjiJqyTgFqvvACHPQjZVE66-4sUD_w1Mj-zJwEPgjrV3rPNySHioEQHijrD5t4irKhOUzUbR2vlDN8iJL3AJN2nQ6crYm-um8C1ljvI0bcqcfCEVc9udygpqa7bPctu_mklRq1Z4QCRLqx8ZqUD-GVS1bh4GnFDBjbzjkcpdiZPlDdnxOFrXOncKB9QeTZM0SAryq-5GvP61zKqZIL1Jnm39NAyfKaia_SvjiEbnMiDTUZP3tzi5uluUy__eBfUc6uL3aVAQDSpKgZXfNfIaZ8dxvd3C7DIyeKoujROt6jeddxil-CbXvn2rGJ3tmNu1ooU3av1xB9iAtxGKyjPRgv2Ml2udD1Ui7cNOpHgFdNziPrvnENbIlp2zrCSiVBOw7fTkUxZM6xBVZFBvNgfoULIZhwLF9vGxizD6WZQSKWKLgN5GR8SKiwR1OtM132Hd6NbRaWhQk7IDCfqnWXMC42L5-vF5rpeEsqI-J4EOzdb_miMLpneLx7qTNguonUHPSywZxNNNnFrQCyoVcK2eP3ZelDk-2BrsVTv-r0tFWGROgSDkvAhZdea-GY46kRY_4egWwxd3yAK_ATMiMkCCX4y9kDTsfgtcy-SrxY0sN8dUSttDaBpHcpsDNOwe5hid5oN0yRiQatxa5MYzDQ_NbFKxMBuoiZ-0S0]--></g></svg>